<?xml version="1.0" encoding="UTF-8"?>
<svg version="1.1" xmlns="http://www.w3.org/2000/svg" width="448" height="85">
<path d="M0 0 C0.80441025 -0.00960754 1.6088205 -0.01921509 2.43760681 -0.02911377 C3.29810135 -0.03336365 4.15859589 -0.03761353 5.04516602 -0.04199219 C6.38394554 -0.0505423 6.38394554 -0.0505423 7.74977112 -0.05926514 C9.63508931 -0.06869837 11.52042387 -0.07524245 13.40576172 -0.07910156 C16.28520447 -0.08882038 19.16393714 -0.11986473 22.04321289 -0.15136719 C23.87719304 -0.15789648 25.71117828 -0.16314724 27.54516602 -0.16699219 C28.40363632 -0.17933899 29.26210663 -0.19168579 30.14659119 -0.20440674 C34.87138339 -0.18684826 38.05072085 0.05123758 41.86157227 3.16113281 C44.04034269 6.42928845 44.12006993 7.4060172 44.15209961 11.19580078 C44.16485931 12.22051483 44.17761902 13.24522888 44.19076538 14.30099487 C44.19299103 15.40726227 44.19521667 16.51352966 44.19750977 17.65332031 C44.20749496 19.360457 44.20749496 19.360457 44.21768188 21.1020813 C44.22781365 23.51123435 44.23249874 25.9204155 44.23217773 28.32958984 C44.23654697 32.01479404 44.2728522 35.69879716 44.31079102 39.38378906 C44.31665979 41.72362871 44.32062878 44.06347406 44.32250977 46.40332031 C44.3368808 47.50553925 44.35125183 48.60775818 44.36605835 49.74337769 C44.32078595 57.32906113 44.32078595 57.32906113 42.14526367 61.27099609 C37.31748239 65.26679283 32.54179568 65.5563703 26.44750977 65.82128906 C25.63722321 65.85725693 24.82693665 65.89322479 23.99209595 65.93028259 C22.27937204 66.00032173 20.56640846 66.06470006 18.85327148 66.1237793 C17.11883944 66.18996541 15.38494769 66.27246487 13.65209961 66.37182617 C3.83285214 66.93461157 -3.76138213 67.2849877 -12.02270508 61.1784668 C-15.48999127 57.87242182 -17.83148345 55.25462183 -19.13842773 50.59863281 C-20.23877069 46.8162039 -21.38527316 45.83085846 -24.13842773 43.16113281 C-27.73475604 36.73911798 -28.25307037 30.66614679 -26.48217773 23.50878906 C-24.59810963 18.10833522 -22.35471796 14.95559006 -17.80639648 11.53222656 C-15.32262692 9.49053308 -13.86789265 6.84478527 -12.13842773 4.16113281 C-8.4018138 0.77482643 -4.9473016 0.04795617 0 0 Z M-10.13842773 12.16113281 C-10.46842773 13.15113281 -10.79842773 14.14113281 -11.13842773 15.16113281 C-12.78176277 16.19902863 -14.4508664 17.19681205 -16.13842773 18.16113281 C-18.98210599 20.47820398 -20.15932483 22.62129924 -21.13842773 26.16113281 C-21.2972632 29.50180128 -21.2552188 32.81961056 -21.13842773 36.16113281 C-20.80842773 36.16113281 -20.47842773 36.16113281 -20.13842773 36.16113281 C-19.89092773 34.61425781 -19.89092773 34.61425781 -19.63842773 33.03613281 C-18.42645501 28.64273167 -15.68036358 26.88320374 -12.01342773 24.42285156 C-10.01366978 23.1642973 -10.01366978 23.1642973 -8.13842773 21.16113281 C-7.97342773 20.15050781 -7.80842773 19.13988281 -7.63842773 18.09863281 C-7.47342773 17.12925781 -7.30842773 16.15988281 -7.13842773 15.16113281 C-4.40595425 13.79489607 -2.15643871 14.03270681 0.86157227 14.16113281 C1.86157227 15.16113281 1.86157227 15.16113281 1.92407227 18.72363281 C1.90344727 19.85800781 1.88282227 20.99238281 1.86157227 22.16113281 C0.76844727 22.59425781 -0.32467773 23.02738281 -1.45092773 23.47363281 C-4.20601546 24.66155525 -6.35976518 25.6500798 -8.13842773 28.16113281 C-8.13842773 29.15113281 -8.13842773 30.14113281 -8.13842773 31.16113281 C-4.83842773 31.16113281 -1.53842773 31.16113281 1.86157227 31.16113281 C1.86157227 33.47113281 1.86157227 35.78113281 1.86157227 38.16113281 C-0.90107062 38.758461 -3.29875542 39.16113281 -6.13842773 39.16113281 C-3.81897985 42.64030463 -1.8747281 43.45543047 1.86157227 45.16113281 C2.04907227 48.53613281 2.04907227 48.53613281 1.86157227 52.16113281 C-1.13842773 54.16113281 -1.13842773 54.16113281 -3.70092773 53.91113281 C-6.13842773 53.16113281 -6.13842773 53.16113281 -8.13842773 51.16113281 C-8.04561523 49.83082031 -8.04561523 49.83082031 -7.95092773 48.47363281 C-8.19755719 44.1165125 -9.97787317 41.17033687 -13.13842773 38.16113281 C-14.12842773 38.16113281 -15.11842773 38.16113281 -16.13842773 38.16113281 C-15.79397893 40.63380046 -15.79397893 40.63380046 -15.13842773 43.16113281 C-14.47842773 43.49113281 -13.81842773 43.82113281 -13.13842773 44.16113281 C-13.01467773 45.43988281 -12.89092773 46.71863281 -12.76342773 48.03613281 C-12.44836133 51.45275657 -12.44836133 51.45275657 -10.26342773 54.09863281 C-8.04267369 55.27161825 -8.04267369 55.27161825 -5.13842773 56.16113281 C-4.68467773 56.69738281 -4.23092773 57.23363281 -3.76342773 57.78613281 C-3.22717773 58.23988281 -2.69092773 58.69363281 -2.13842773 59.16113281 C1.17976212 58.91907932 1.17976212 58.91907932 3.86157227 57.16113281 C3.96497801 55.70387063 4.00007519 54.24167243 4.00683594 52.78076172 C4.01321579 51.84954498 4.01959564 50.91832825 4.02616882 49.95889282 C4.02728165 48.94539764 4.02839447 47.93190247 4.02954102 46.88769531 C4.03286942 45.85301117 4.03619781 44.81832703 4.03962708 43.75228882 C4.04470131 41.55817104 4.04703525 39.36404551 4.046875 37.16992188 C4.0490584 33.80748792 4.06720049 30.4453835 4.08618164 27.08300781 C4.08911603 24.95540477 4.09110052 22.82780017 4.09204102 20.70019531 C4.09922653 19.6907486 4.10641205 18.68130188 4.11381531 17.64126587 C4.11073868 16.70374481 4.10766205 15.76622375 4.10449219 14.80029297 C4.10591721 13.97502106 4.10734222 13.14974915 4.10881042 12.29946899 C3.99155831 9.86269386 3.99155831 9.86269386 1.86157227 7.16113281 C-4.08027561 6.26425011 -6.45634411 7.50438 -10.13842773 12.16113281 Z M9.86157227 7.16113281 C9.86157227 23.99113281 9.86157227 40.82113281 9.86157227 58.16113281 C18.11157227 58.16113281 26.36157227 58.16113281 34.86157227 58.16113281 C37.98780321 55.60655897 37.98780321 55.60655897 38.23579407 53.06748962 C38.23516464 52.26299881 38.23453522 51.458508 38.23388672 50.62963867 C38.24011551 49.71536606 38.2463443 48.80109344 38.25276184 47.8591156 C38.24355209 46.87467972 38.23434235 45.89024384 38.22485352 44.87597656 C38.22535202 43.86394669 38.22585052 42.85191681 38.22636414 41.80921936 C38.22402339 39.66991207 38.21429487 37.53060204 38.19775391 35.39135742 C38.17413954 32.10798666 38.17719574 28.82542639 38.18383789 25.54199219 C38.17826202 23.46581545 38.17115271 21.38964214 38.16235352 19.31347656 C38.16326492 18.32701645 38.16417633 17.34055634 38.16511536 16.32420349 C38.15081734 14.95752281 38.15081734 14.95752281 38.13623047 13.56323242 C38.12931938 12.35768959 38.12931938 12.35768959 38.12226868 11.12779236 C38.03342621 8.92761666 38.03342621 8.92761666 35.86157227 7.16113281 C33.14222892 6.88268349 33.14222892 6.88268349 29.97875977 6.96582031 C28.9280127 6.97081543 27.87726562 6.97581055 26.79467773 6.98095703 C24.78591553 7.00826904 24.78591553 7.00826904 22.73657227 7.03613281 C16.36344727 7.09800781 16.36344727 7.09800781 9.86157227 7.16113281 Z M-20.13842773 36.16113281 C-19.13842773 38.16113281 -19.13842773 38.16113281 -19.13842773 38.16113281 Z M-19.13842773 38.16113281 C-18.80842773 39.15113281 -18.47842773 40.14113281 -18.13842773 41.16113281 C-18.13842773 40.17113281 -18.13842773 39.18113281 -18.13842773 38.16113281 C-18.46842773 38.16113281 -18.79842773 38.16113281 -19.13842773 38.16113281 Z " fill="#25295E" transform="translate(30.138427734375,17.8388671875)"/>
<path d="M0 0 C3.4375 2 3.4375 2 6 4 C6.845625 3.34 7.69125 2.68 8.5625 2 C12.5265716 -0.30636893 14.4897723 -0.57402898 19 0 C22.5386994 1.65139305 23.81070153 2.71605229 26 6 C26.22705078 8.63549805 26.22705078 8.63549805 26.1953125 11.76171875 C26.18886719 12.87998047 26.18242187 13.99824219 26.17578125 15.15039062 C26.15902344 16.31763672 26.14226562 17.48488281 26.125 18.6875 C26.11597656 19.86634766 26.10695312 21.04519531 26.09765625 22.25976562 C26.07406423 25.17338026 26.0411454 28.08658892 26 31 C23.69 31 21.38 31 19 31 C18.97494385 30.3387915 18.9498877 29.67758301 18.92407227 28.99633789 C18.80846898 26.01817695 18.68558246 23.0403608 18.5625 20.0625 C18.52318359 19.02158203 18.48386719 17.98066406 18.44335938 16.90820312 C18.40146484 15.91884766 18.35957031 14.92949219 18.31640625 13.91015625 C18.26141968 12.53549194 18.26141968 12.53549194 18.20532227 11.13305664 C18.22996136 9.0179272 18.22996136 9.0179272 17 8 C14.0842309 7.58297878 14.0842309 7.58297878 11 8 C8.87568349 9.81295097 8.10014147 11.35792083 7.67089844 14.11010742 C7.479897 16.65875099 7.37854211 19.19511381 7.3125 21.75 C7.27833984 22.63816406 7.24417969 23.52632812 7.20898438 24.44140625 C7.12671286 26.62747803 7.05749828 28.81315951 7 31 C4.69 31 2.38 31 0 31 C-0.02505615 30.3387915 -0.0501123 29.67758301 -0.07592773 28.99633789 C-0.19153102 26.01817695 -0.31441754 23.0403608 -0.4375 20.0625 C-0.47681641 19.02158203 -0.51613281 17.98066406 -0.55664062 16.90820312 C-0.59853516 15.91884766 -0.64042969 14.92949219 -0.68359375 13.91015625 C-0.72025146 12.99371338 -0.75690918 12.07727051 -0.79467773 11.13305664 C-0.77003864 9.0179272 -0.77003864 9.0179272 -2 8 C-4.67058851 7.85884839 -7.32432238 7.95752893 -10 8 C-10.80652508 10.88167681 -11.17515006 13.56031547 -11.31640625 16.546875 C-11.35830078 17.39121094 -11.40019531 18.23554687 -11.44335938 19.10546875 C-11.48267578 19.97816406 -11.52199219 20.85085937 -11.5625 21.75 C-11.62727539 23.08224609 -11.62727539 23.08224609 -11.69335938 24.44140625 C-11.79913615 26.62745963 -11.90122546 28.81362089 -12 31 C-14.31 31 -16.62 31 -19 31 C-19 21.1 -19 11.2 -19 1 C-16 1 -13 1 -10 1 C-6.38069302 -0.20643566 -3.80768995 -0.32268559 0 0 Z " fill="#0E1013" transform="translate(137,38)"/>
<path d="M0 0 C3.4375 2 3.4375 2 6 4 C6.433125 3.525625 6.86625 3.05125 7.3125 2.5625 C9.86051326 0.20322846 11.95349703 0.00344466 15.375 -0.25 C19.2487362 0.01715422 20.96025572 0.65505441 24 3 C26.29755922 6.44633882 26.23643976 7.71068391 26.1953125 11.76171875 C26.18886719 12.87998047 26.18242187 13.99824219 26.17578125 15.15039062 C26.15902344 16.31763672 26.14226562 17.48488281 26.125 18.6875 C26.11597656 19.86634766 26.10695313 21.04519531 26.09765625 22.25976562 C26.07406423 25.17338026 26.0411454 28.08658892 26 31 C23.69 31 21.38 31 19 31 C18.97494385 30.3387915 18.9498877 29.67758301 18.92407227 28.99633789 C18.80846898 26.01817695 18.68558246 23.0403608 18.5625 20.0625 C18.52318359 19.02158203 18.48386719 17.98066406 18.44335938 16.90820312 C18.40146484 15.91884766 18.35957031 14.92949219 18.31640625 13.91015625 C18.26141968 12.53549194 18.26141968 12.53549194 18.20532227 11.13305664 C18.22996136 9.0179272 18.22996136 9.0179272 17 8 C14.0842309 7.58297878 14.0842309 7.58297878 11 8 C8.87568349 9.81295097 8.10014147 11.35792083 7.67089844 14.11010742 C7.479897 16.65875099 7.37854211 19.19511381 7.3125 21.75 C7.27833984 22.63816406 7.24417969 23.52632812 7.20898438 24.44140625 C7.12671286 26.62747803 7.05749828 28.81315951 7 31 C4.69 31 2.38 31 0 31 C-0.02505615 30.3387915 -0.0501123 29.67758301 -0.07592773 28.99633789 C-0.19153102 26.01817695 -0.31441754 23.0403608 -0.4375 20.0625 C-0.47681641 19.02158203 -0.51613281 17.98066406 -0.55664062 16.90820312 C-0.59853516 15.91884766 -0.64042969 14.92949219 -0.68359375 13.91015625 C-0.72025146 12.99371338 -0.75690918 12.07727051 -0.79467773 11.13305664 C-0.77003864 9.0179272 -0.77003864 9.0179272 -2 8 C-4.67058851 7.85884839 -7.32432238 7.95752893 -10 8 C-10.9300889 10.7902667 -11.18698769 12.76529542 -11.31640625 15.66796875 C-11.35830078 16.56064453 -11.40019531 17.45332031 -11.44335938 18.37304688 C-11.50233398 19.76620117 -11.50233398 19.76620117 -11.5625 21.1875 C-11.60568359 22.12787109 -11.64886719 23.06824219 -11.69335938 24.03710938 C-11.79938665 26.35792854 -11.90145029 28.67885325 -12 31 C-14.31 31 -16.62 31 -19 31 C-19 21.1 -19 11.2 -19 1 C-16 1 -13 1 -10 1 C-6.38069302 -0.20643566 -3.80768995 -0.32268559 0 0 Z " fill="#1A1E26" transform="translate(348,38)"/>
<path d="M0 0 C4.49342843 2.1284661 6.95569733 4.45710517 9 9 C9 10.32 9 11.64 9 13 C5.75 13.3125 5.75 13.3125 2 13 C0.62131719 11.37064759 -0.71274093 9.70250393 -2 8 C-5.43291694 6.85569435 -7.0841101 6.56615742 -10.375 8.125 C-12.47144376 10.54397357 -12.13253901 11.89043092 -12 15 C-11.29875 15.17015625 -10.5975 15.3403125 -9.875 15.515625 C5.25327511 19.37991266 5.25327511 19.37991266 9 25 C9.67377709 30.06116277 9.80185639 34.54477914 7.3125 39.0625 C2.51041035 43.08587241 -2.20498863 43.43908379 -8.2734375 43.31640625 C-13.41704199 42.71951232 -16.63314589 40.67549858 -19.9375 36.625 C-21.17071876 33.57822423 -21.22728306 31.25772389 -21 28 C-18.69 28 -16.38 28 -14 28 C-13.5875 28.94875 -13.175 29.8975 -12.75 30.875 C-11.27931609 33.96546609 -11.27931609 33.96546609 -9.1875 35.4375 C-6.1763985 36.21178324 -3.98557984 35.77884692 -1 35 C1.35953094 32.64046906 1.49141413 31.22104383 2 28 C1.443125 27.81824219 0.88625 27.63648437 0.3125 27.44921875 C-1.28860205 26.92182872 -2.88743026 26.38750392 -4.484375 25.84765625 C-6.0522266 25.31935843 -7.62456926 24.80399156 -9.203125 24.30859375 C-13.85368267 22.75544949 -17.14885283 21.1876224 -20 17 C-20.9090001 12.11714104 -20.76899998 8.31828568 -18.25 4 C-12.76051707 -0.87954039 -7.09360237 -0.7691858 0 0 Z " fill="#323B4A" transform="translate(103,27)"/>
<path d="M0 0 C2.31 0 4.62 0 7 0 C8.99777961 5.65860449 10.99150639 11.3186139 12.98144531 16.97998047 C13.65936084 18.9068075 14.33839382 20.83324176 15.01855469 22.75927734 C15.99446032 25.52339491 16.96637463 28.28888744 17.9375 31.0546875 C18.24373291 31.9193161 18.54996582 32.7839447 18.86547852 33.67477417 C19.14576904 34.47545319 19.42605957 35.2761322 19.71484375 36.10107422 C19.96355225 36.8072287 20.21226074 37.51338318 20.46850586 38.24093628 C21 40 21 40 21 42 C18.69 42 16.38 42 14 42 C12.68 38.7 11.36 35.4 10 32 C5.71 31.67 1.42 31.34 -3 31 C-3.99 34.63 -4.98 38.26 -6 42 C-8.64 42 -11.28 42 -14 42 C-11.69427537 32.71665178 -8.55093541 23.79892464 -5.3125 14.8125 C-4.79584618 13.36927581 -4.27956755 11.92591725 -3.76367188 10.48242188 C-2.51342785 6.98672451 -1.2581456 3.49286247 0 0 Z M3 12 C1.68 16.29 0.36 20.58 -1 25 C1.97 25 4.94 25 8 25 C7.55005243 23.20620902 7.08975857 21.41501072 6.625 19.625 C6.36976563 18.62726562 6.11453125 17.62953125 5.8515625 16.6015625 C5.17595681 13.87458985 5.17595681 13.87458985 3 12 Z " fill="#282052" transform="translate(392,26)"/>
<path d="M0 0 C0.7734375 0.495 0.7734375 0.495 1.5625 1 C1.8925 0.67 2.2225 0.34 2.5625 0 C4.8725 0 7.1825 0 9.5625 0 C9.5625 9.9 9.5625 19.8 9.5625 30 C6.5625 30 3.5625 30 0.5625 30 C-0.0975 30.33 -0.7575 30.66 -1.4375 31 C-5.69946588 31.43540712 -9.35499516 31.47065428 -13.3125 29.75 C-16.50200003 27.12335292 -18.12989865 24.92280404 -19.4375 21 C-19.92316422 14.52759035 -20.37136705 8.47931482 -16.4375 3 C-11.76703338 -1.23261038 -5.94276044 -2.43805556 0 0 Z M-10.4375 7 C-12.84055774 9.97521435 -12.8022753 13.28929052 -12.68359375 17.03125 C-12.30652157 20.04782746 -11.47856967 21.75482336 -9.4375 24 C-6.59122409 25.33550847 -6.59122409 25.33550847 -3.4375 25 C-0.81794456 22.84614331 1.04223297 21.04053406 2.5625 18 C2.5774921 15.88446939 2.5774921 15.88446939 2.3125 13.5625 C2.24546875 12.78003906 2.1784375 11.99757813 2.109375 11.19140625 C1.46421634 8.60616332 0.61513593 7.65436329 -1.4375 6 C-4.94431605 4.48037971 -7.15096232 5.18375549 -10.4375 7 Z " fill="#232933" transform="translate(188.4375,39)"/>
<path d="M0 0 C1.89746094 -0.36749268 1.89746094 -0.36749268 4.234375 -0.35644531 C5.10868164 -0.35944641 5.98298828 -0.36244751 6.88378906 -0.36553955 C8.30256348 -0.34701935 8.30256348 -0.34701935 9.75 -0.328125 C11.2035791 -0.32531525 11.2035791 -0.32531525 12.68652344 -0.32244873 C14.73766514 -0.31571894 16.78879381 -0.30178617 18.83984375 -0.28125 C21.98709987 -0.25012757 25.13385535 -0.24028375 28.28125 -0.234375 C30.27083947 -0.22520399 32.26042382 -0.2148279 34.25 -0.203125 C35.66877441 -0.19675018 35.66877441 -0.19675018 37.11621094 -0.19024658 C37.99051758 -0.18063904 38.86482422 -0.17103149 39.765625 -0.16113281 C40.92239746 -0.15089081 40.92239746 -0.15089081 42.10253906 -0.14044189 C44 0 44 0 46 1 C47.92563944 4.03889066 48.24540297 6.39182382 48.22705078 9.95214844 C48.22689972 10.93286316 48.22674866 11.91357788 48.22659302 12.92401123 C48.21627045 13.97518127 48.20594788 15.02635132 48.1953125 16.109375 C48.1924826 17.19132141 48.18965271 18.27326782 48.18673706 19.38800049 C48.17554609 22.84211304 48.1504432 26.29596588 48.125 29.75 C48.11496881 32.09244417 48.1058432 34.43489241 48.09765625 36.77734375 C48.0756103 42.51831771 48.04214334 48.2591403 48 54 C47.34 54 46.68 54 46 54 C46 37.83 46 21.66 46 5 C35.77 4.67 25.54 4.34 15 4 C15.33 4.99 15.66 5.98 16 7 C16.05983034 8.64239986 16.05897689 10.28735281 16.02172852 11.93041992 C15.99158409 13.43163643 15.99158409 13.43163643 15.96083069 14.96318054 C15.92027809 16.5804882 15.92027809 16.5804882 15.87890625 18.23046875 C15.85529526 19.33602615 15.83168427 20.44158356 15.80735779 21.5806427 C15.73070304 25.11639183 15.64668612 28.65192295 15.5625 32.1875 C15.50928115 34.58267158 15.45654074 36.97785383 15.40429688 39.37304688 C15.27598587 45.2488763 15.13772702 51.12435349 15 57 C24.24 57 33.48 57 43 57 C43.33 56.01 43.66 55.02 44 54 C44.33 54.66 44.66 55.32 45 56 C44.505 56.99 44.505 56.99 44 58 C37.4 58 30.8 58 24 58 C24 58.66 24 59.32 24 60 C27.96 60 31.92 60 36 60 C36 60.33 36 60.66 36 61 C20.16 61.495 20.16 61.495 4 62 C3.67 61.34 3.34 60.68 3 60 C6.465 59.505 6.465 59.505 10 59 C10.73156242 55.7081286 11.13215251 52.64326505 11.16113281 49.27319336 C11.17074036 48.36552719 11.1803479 47.45786102 11.19024658 46.52268982 C11.19449646 45.55485062 11.19874634 44.58701141 11.203125 43.58984375 C11.20882507 42.58538712 11.21452515 41.58093048 11.22039795 40.54603577 C11.22982471 38.42710416 11.23637267 36.30815804 11.24023438 34.18920898 C11.24997584 30.94554346 11.28103579 27.70250231 11.3125 24.45898438 C11.31902707 22.39844126 11.3242787 20.33789362 11.328125 18.27734375 C11.3404718 17.30748032 11.3528186 16.33761688 11.36553955 15.33836365 C11.36253845 14.43384964 11.35953735 13.52933563 11.35644531 12.59741211 C11.36009094 11.80419052 11.36373657 11.01096893 11.36749268 10.19371033 C10.90286411 7.42015714 9.90447123 6.04210418 8 4 C5.50592748 3.3049261 5.50592748 3.3049261 2.8125 3.25 C1.46091797 3.16492188 1.46091797 3.16492188 0.08203125 3.078125 C-0.60503906 3.05234375 -1.29210937 3.0265625 -2 3 C-1.34 2.01 -0.68 1.02 0 0 Z " fill="#6864EC" transform="translate(24,20)"/>
<path d="M0 0 C4.03843343 2.60254599 6.29289779 5.25369336 7.8125 9.8125 C8.54188894 16.5444012 8.03785663 22.32348531 3.8125 27.8125 C-0.81027706 31.25270618 -5.61357078 31.56601265 -11.1875 30.8125 C-15.74716655 28.88730746 -19.02589234 25.61971852 -20.9375 21 C-21.76424398 13.76599021 -21.31130716 8.92080139 -17.1875 2.8125 C-12.22284509 -1.85126673 -6.29717369 -2.34600588 0 0 Z M-12.0625 7.125 C-14.56540876 10.87936314 -14.56496309 14.43392818 -14.1875 18.8125 C-12.2317777 22.27262407 -10.96504999 23.5147149 -7.25 24.9375 C-4.04379856 25.06822622 -4.04379856 25.06822622 -1.3125 22.9375 C1.15901137 19.30292445 1.49939777 17.27340175 1.2265625 12.97265625 C0.57504389 9.57369596 -0.4869403 7.95909873 -3.1875 5.8125 C-6.76379221 5.31056425 -9.03689263 5.00707484 -12.0625 7.125 Z " fill="#20252E" transform="translate(292.1875,39.1875)"/>
<path d="M0 0 C2 2 2 2 2.25 5.5 C2 9 2 9 0 11 C-0.969375 11.268125 -1.93875 11.53625 -2.9375 11.8125 C-6.58288415 13.2260163 -7.36058714 14.5390173 -9 18 C-7.93458984 17.87431641 -7.93458984 17.87431641 -6.84765625 17.74609375 C-5.46900391 17.59333984 -5.46900391 17.59333984 -4.0625 17.4375 C-3.14597656 17.33308594 -2.22945312 17.22867188 -1.28515625 17.12109375 C-0.15400391 17.06115234 -0.15400391 17.06115234 1 17 C2 18 2 18 2.1875 21.4375 C2 25 2 25 0 27 C-3.125 26.625 -3.125 26.625 -6 26 C-4.49650603 29.00698793 -1.9581052 29.58257459 1 31 C2 32 2 32 2.3125 35.375 C2 39 2 39 0.3125 41 C-2.64288086 42.27800253 -3.98998383 42.08051862 -7 41 C-8.8125 39.8125 -8.8125 39.8125 -10 38 C-9.979375 37.05125 -9.95875 36.1025 -9.9375 35.125 C-10.01690449 31.1547756 -11.42233151 29.89987705 -14 27 C-14 26.34 -14 25.68 -14 25 C-14.99 25 -15.98 25 -17 25 C-18.13866026 22.58871946 -19.02166924 20.69341564 -18.9375 18 C-17.28441513 14.47341893 -14.29635425 12.05628865 -11.3125 9.625 C-9.2721493 7.09885151 -8.85919344 4.09309639 -8 1 C-5.23749964 -0.38125018 -3.05268901 -0.19079306 0 0 Z " fill="#464FC7" transform="translate(31,31)"/>
<path d="M0 0 C6.6 0 13.2 0 20 0 C20 2.31 20 4.62 20 7 C17.69 7 15.38 7 13 7 C13 16.57 13 26.14 13 36 C15.31 36 17.62 36 20 36 C20 37.98 20 39.96 20 42 C13.4 42 6.8 42 0 42 C0 40.02 0 38.04 0 36 C1.98 36 3.96 36 6 36 C6 26.43 6 16.86 6 7 C4.02 7 2.04 7 0 7 C0 4.69 0 2.38 0 0 Z " fill="#6F55E7" transform="translate(416,26)"/>
<path d="M0 0 C1.32 0.66 2.64 1.32 4 2 C4.10125781 9.3505479 4.17140549 16.70091658 4.21972656 24.05200195 C4.23986617 26.55369793 4.2671796 29.0553467 4.30175781 31.55688477 C4.35017103 35.14871861 4.3729455 38.73993117 4.390625 42.33203125 C4.41127014 43.45398392 4.43191528 44.57593658 4.45318604 45.73188782 C4.45348816 46.77274033 4.45379028 47.81359283 4.45410156 48.88598633 C4.46298401 49.80309891 4.47186646 50.72021149 4.48101807 51.66511536 C4 54 4 54 2.09533691 55.77703857 C-1.37152722 57.80050367 -4.36312197 58.1259777 -8.328125 58.09765625 C-9.12734375 58.09443359 -9.9265625 58.09121094 -10.75 58.08789062 C-11.575 58.07951172 -12.4 58.07113281 -13.25 58.0625 C-14.09046875 58.05798828 -14.9309375 58.05347656 -15.796875 58.04882812 C-17.86461401 58.03707961 -19.93231624 58.01914522 -22 58 C-22 57.34 -22 56.68 -22 56 C-15.4 56 -8.8 56 -2 56 C-2 55.01 -2 54.02 -2 53 C-2.33 53.66 -2.66 54.32 -3 55 C-12.24 55 -21.48 55 -31 55 C-31 42.46 -31 29.92 -31 17 C-30.34 17 -29.68 17 -29 17 C-28.97524531 21.62646089 -28.95711406 26.25288306 -28.94506836 30.87939453 C-28.94004563 32.45264355 -28.93322625 34.02588792 -28.92456055 35.59912109 C-28.91240471 37.86296743 -28.90675104 40.12675193 -28.90234375 42.390625 C-28.89718246 43.09181458 -28.89202118 43.79300415 -28.88670349 44.51544189 C-28.88632498 47.82485751 -28.97485273 50.83587763 -30 54 C-25.8744331 53.89051894 -21.74981122 53.75979775 -17.625 53.625 C-16.449375 53.5940625 -15.27375 53.563125 -14.0625 53.53125 C-12.94101562 53.49257812 -11.81953125 53.45390625 -10.6640625 53.4140625 C-9.62717285 53.3826416 -8.5902832 53.3512207 -7.52197266 53.31884766 C-4.83190165 53.24045528 -4.83190165 53.24045528 -3 51 C-2.70150785 48.94666093 -2.70150785 48.94666093 -2.75708008 46.56616211 C-2.75400345 45.64858627 -2.75092682 44.73101044 -2.74775696 43.78562927 C-2.75494247 42.79289505 -2.76212799 41.80016083 -2.76953125 40.77734375 C-2.76998947 39.76152725 -2.77044769 38.74571075 -2.7709198 37.69911194 C-2.77394404 35.54964023 -2.78183544 33.40017075 -2.79418945 31.25073242 C-2.81244376 27.94767558 -2.8146992 24.64489888 -2.81445312 21.34179688 C-2.81936821 19.25781006 -2.82519649 17.17382515 -2.83203125 15.08984375 C-2.83314407 14.0950853 -2.8342569 13.10032684 -2.83540344 12.07542419 C-2.84178329 11.16100052 -2.84816315 10.24657684 -2.85473633 9.30444336 C-2.85854813 8.49551132 -2.86235992 7.68657928 -2.86628723 6.85313416 C-2.79800125 4.98387066 -2.79800125 4.98387066 -4 4 C-5.92478813 3.84193469 -7.8549921 3.748865 -9.78515625 3.68359375 C-10.95498047 3.64169922 -12.12480469 3.59980469 -13.33007812 3.55664062 C-15.17762695 3.49766602 -15.17762695 3.49766602 -17.0625 3.4375 C-18.29806641 3.39431641 -19.53363281 3.35113281 -20.80664062 3.30664062 C-23.87097335 3.20015802 -26.93539073 3.09814576 -30 3 C-30.33 3.66 -30.66 4.32 -31 5 C-31 4.01 -31 3.02 -31 2 C-27.06731133 1.97526132 -23.13465287 1.95712165 -19.2019043 1.94506836 C-17.20685232 1.93757271 -15.21182214 1.92486655 -13.21679688 1.91210938 C-11.96318359 1.90888672 -10.70957031 1.90566406 -9.41796875 1.90234375 C-8.26063232 1.89710693 -7.1032959 1.89187012 -5.91088867 1.88647461 C-3 2 -3 2 0 3 C0 19.17 0 35.34 0 52 C0.66 52 1.32 52 2 52 C1.88247267 45.07645153 1.75763983 38.15306263 1.62768555 31.22973633 C1.58432792 28.87364705 1.54265346 26.51752617 1.50268555 24.16137695 C1.44500324 20.77806062 1.38130269 17.39490343 1.31640625 14.01171875 C1.29969376 12.95538742 1.28298126 11.89905609 1.26576233 10.81071472 C1.2358445 9.33952934 1.2358445 9.33952934 1.20532227 7.83862305 C1.18200584 6.54289619 1.18200584 6.54289619 1.15821838 5.22099304 C1.07990261 2.82634575 1.07990261 2.82634575 0 0 Z " fill="#463C84" transform="translate(70,22)"/>
<path d="M0 0 C0.66 0.33 1.32 0.66 2 1 C2 2.65 2 4.3 2 6 C-2.75 7 -2.75 7 -5 7 C-5 8.65 -5 10.3 -5 12 C-2.69 12.33 -0.38 12.66 2 13 C2 14.98 2 16.96 2 19 C-0.31 19.33 -2.62 19.66 -5 20 C-5.33 27.59 -5.66 35.18 -6 43 C-7.98 43 -9.96 43 -12 43 C-12 35.08 -12 27.16 -12 19 C-13.98 19 -15.96 19 -18 19 C-18 17.02 -18 15.04 -18 13 C-16.02 13 -14.04 13 -12 13 C-12.0928125 11.14375 -12.0928125 11.14375 -12.1875 9.25 C-12.1875 6.36821352 -12.08376228 5.15555852 -10.6875 2.5625 C-7.47739342 -0.40982091 -4.16341553 -0.17716662 0 0 Z " fill="#2F3744" transform="translate(267,26)"/>
<path d="M0 0 C2.31 0 4.62 0 7 0 C7 2.31 7 4.62 7 7 C9.31 7 11.62 7 14 7 C14 8.98 14 10.96 14 13 C11.69 13 9.38 13 7 13 C7.33 18.94 7.66 24.88 8 31 C9.98 31.33 11.96 31.66 14 32 C14 33.98 14 35.96 14 38 C5.89108911 38.46782178 5.89108911 38.46782178 2.5 36.6875 C-0.02570773 33.8460788 -0.12203384 31.18304213 -0.09765625 27.55078125 C-0.09443359 26.70322266 -0.09121094 25.85566406 -0.08789062 24.98242188 C-0.07951172 24.10134766 -0.07113281 23.22027344 -0.0625 22.3125 C-0.05798828 21.41982422 -0.05347656 20.52714844 -0.04882812 19.60742188 C-0.03704983 17.40488013 -0.02060164 15.20247401 0 13 C-1.65 13 -3.3 13 -5 13 C-5 11.02 -5 9.04 -5 7 C-3.68 6.67 -2.36 6.34 -1 6 C-0.67 4.02 -0.34 2.04 0 0 Z " fill="#252B35" transform="translate(232,32)"/>
<path d="M0 0 C2.9375 1.5 2.9375 1.5 5 3 C4.67 3.66 4.34 4.32 4 5 C3.01 4.34 2.02 3.68 1 3 C-1.72283905 2.68745622 -4.24442486 2.86666572 -7 3 C-7.33 3.33 -7.66 3.66 -8 4 C-6.081875 4.4021875 -6.081875 4.4021875 -4.125 4.8125 C-0.50324145 5.57190099 -0.19948132 5.70077803 2 9 C2.22705078 11.26831055 2.22705078 11.26831055 2.1953125 13.88671875 C2.18886719 14.82451172 2.18242187 15.76230469 2.17578125 16.72851562 C2.15902344 17.70498047 2.14226562 18.68144531 2.125 19.6875 C2.11597656 20.67556641 2.10695312 21.66363281 2.09765625 22.68164062 C2.0740843 25.12133765 2.04118022 27.56054697 2 30 C3.32 30 4.64 30 6 30 C6 24.06 6 18.12 6 12 C6.33 12 6.66 12 7 12 C7 18.27 7 24.54 7 31 C4.69 31 2.38 31 0 31 C-0.02505615 30.3387915 -0.0501123 29.67758301 -0.07592773 28.99633789 C-0.19153102 26.01817695 -0.31441754 23.0403608 -0.4375 20.0625 C-0.47681641 19.02158203 -0.51613281 17.98066406 -0.55664062 16.90820312 C-0.59853516 15.91884766 -0.64042969 14.92949219 -0.68359375 13.91015625 C-0.72025146 12.99371338 -0.75690918 12.07727051 -0.79467773 11.13305664 C-0.77003864 9.0179272 -0.77003864 9.0179272 -2 8 C-4.67058851 7.85884839 -7.32432238 7.95752893 -10 8 C-10.80652508 10.88167681 -11.17515006 13.56031547 -11.31640625 16.546875 C-11.35830078 17.39121094 -11.40019531 18.23554687 -11.44335938 19.10546875 C-11.48267578 19.97816406 -11.52199219 20.85085937 -11.5625 21.75 C-11.62727539 23.08224609 -11.62727539 23.08224609 -11.69335938 24.44140625 C-11.79913615 26.62745963 -11.90122546 28.81362089 -12 31 C-14.31 31 -16.62 31 -19 31 C-19 21.1 -19 11.2 -19 1 C-16 1 -13 1 -10 1 C-6.42365687 -0.19211438 -3.75935317 -0.25926574 0 0 Z " fill="#15181D" transform="translate(137,38)"/>
<path d="M0 0 C4.99464924 0.47568088 8.02785403 1.95160891 12 5 C13.97125294 8.94250588 13.44717024 13.70219715 13 18 C10.68316183 22.20463223 8.45028265 23.50796039 4 25 C-3.07479552 25.89739294 -8.30987556 25.38613759 -14 21 C-16.98863852 17.33650762 -17.32545535 14.66486007 -17 10 C-14.69 10 -12.38 10 -10 10 C-9.5875 10.94875 -9.175 11.8975 -8.75 12.875 C-7.27931609 15.96546609 -7.27931609 15.96546609 -5.1875 17.4375 C-2.1763985 18.21178324 0.01442016 17.77884692 3 17 C5.35953094 14.64046906 5.49141413 13.22104383 6 10 C5.443125 9.81824219 4.88625 9.63648438 4.3125 9.44921875 C-0.84196991 7.75137815 -5.93010615 5.93577765 -11 4 C-7.20680519 2.57755195 -4.75138552 3.455772 -1 4.75 C0.546875 5.26820312 0.546875 5.26820312 2.125 5.796875 C4.81411535 6.92221132 6.77562676 8.13922623 9 10 C9 8.35 9 6.7 9 5 C6.03 4.01 3.06 3.02 0 2 C0 1.34 0 0.68 0 0 Z " fill="#272D39" transform="translate(99,45)"/>
<path d="M0 0 C1 1 1 1 1.0625 4.0625 C1.041875 5.031875 1.02125 6.00125 1 7 C-1.97851562 7.1953125 -1.97851562 7.1953125 -4.95703125 7.390625 C-7.08530408 7.87878572 -7.08530408 7.87878572 -8.71875 9.4375 C-10.70430354 13.40860708 -10.57417687 17.36601384 -10.6875 21.75 C-10.72166016 22.63816406 -10.75582031 23.52632812 -10.79101562 24.44140625 C-10.87328714 26.62747803 -10.94250172 28.81315951 -11 31 C-13.31 31 -15.62 31 -18 31 C-18 21.1 -18 11.2 -18 1 C-15 1 -12 1 -9 1 C-5.78419562 -0.07193479 -3.36629251 -0.14636054 0 0 Z " fill="#1F252E" transform="translate(224,38)"/>
<path d="M0 0 C1.65 0 3.3 0 5 0 C7.63701634 6.89479022 10.08203289 13.85437183 12.4987793 20.82885742 C12.96127849 22.16094035 13.42582683 23.49231344 13.89233398 24.82299805 C14.57203343 26.76198009 15.24567612 28.70297056 15.91796875 30.64453125 C16.31781982 31.79284424 16.7176709 32.94115723 17.12963867 34.12426758 C18 37 18 37 18 40 C16.35 39.67 14.7 39.34 13 39 C11.80712589 35.12315913 11 32.08378077 11 28 C7.37 28 3.74 28 0 28 C3.4352048 25.70986347 4.985331 25.82157027 9 26 C8.6390625 24.95199219 8.278125 23.90398438 7.90625 22.82421875 C7.43726182 21.44539349 6.9685249 20.06648275 6.5 18.6875 C6.26152344 17.99720703 6.02304687 17.30691406 5.77734375 16.59570312 C4.76791737 13.61068511 4 11.17341086 4 8 C3.01 8 2.02 8 1 8 C1.04125 8.680625 1.0825 9.36125 1.125 10.0625 C0.97450035 13.59924168 0.05624147 16.63323033 -1 20 C-1.66 20 -2.32 20 -3 20 C-3.12375 20.7425 -3.2475 21.485 -3.375 22.25 C-3.95486701 24.80141485 -4.73708739 26.7267573 -6 29 C-6.66 29 -7.32 29 -8 29 C-7.49199876 21.96668709 -5.88090663 16.03227867 -3.4375 9.4375 C-3.10814453 8.52419922 -2.77878906 7.61089844 -2.43945312 6.66992188 C-1.63505629 4.44325818 -0.82183701 2.22027256 0 0 Z " fill="#664ED9" transform="translate(393,27)"/>
<path d="M0 0 C0 2.31 0 4.62 0 7 C-1.093125 7.103125 -2.18625 7.20625 -3.3125 7.3125 C-7.44195812 8.0608393 -7.44195812 8.0608393 -10 11 C-10.50155022 13.2143507 -10.50155022 13.2143507 -10.51171875 15.66796875 C-10.56489258 17.00698242 -10.56489258 17.00698242 -10.61914062 18.37304688 C-10.64169922 19.30181641 -10.66425781 20.23058594 -10.6875 21.1875 C-10.72166016 22.12787109 -10.75582031 23.06824219 -10.79101562 24.03710938 C-10.87348218 26.35795393 -10.94263403 28.67842148 -11 31 C-13.31 31 -15.62 31 -18 31 C-18 21.1 -18 11.2 -18 1 C-15.03 1 -12.06 1 -9 1 C-6.04335481 -0.4783226 -3.25770263 -0.06032783 0 0 Z " fill="#15181E" transform="translate(324,38)"/>
<path d="M0 0 C0.80441025 -0.00960754 1.6088205 -0.01921509 2.43760681 -0.02911377 C3.29810135 -0.03336365 4.15859589 -0.03761353 5.04516602 -0.04199219 C6.38394554 -0.0505423 6.38394554 -0.0505423 7.74977112 -0.05926514 C9.63508931 -0.06869837 11.52042387 -0.07524245 13.40576172 -0.07910156 C16.28520447 -0.08882038 19.16393714 -0.11986473 22.04321289 -0.15136719 C23.87719304 -0.15789648 25.71117828 -0.16314724 27.54516602 -0.16699219 C28.40363632 -0.17933899 29.26210663 -0.19168579 30.14659119 -0.20440674 C34.80301578 -0.18710233 38.17681182 -0.04186456 41.86157227 3.16113281 C41.86157227 4.15113281 41.86157227 5.14113281 41.86157227 6.16113281 C41.40741943 5.67290039 40.9532666 5.18466797 40.48535156 4.68164062 C36.42746376 2.33005179 32.48805631 2.77240985 27.88110352 2.83300781 C26.42821175 2.83581757 26.42821175 2.83581757 24.94596863 2.83868408 C22.90258329 2.84539833 20.85921067 2.85930034 18.81591797 2.87988281 C15.67541671 2.91111944 12.53541679 2.9208622 9.39477539 2.92675781 C7.41104526 2.93592447 5.42732027 2.94629916 3.44360352 2.95800781 C2.49886673 2.96225769 1.55412994 2.96650757 0.58076477 2.97088623 C-0.28716202 2.98049377 -1.15508881 2.99010132 -2.04931641 3 C-3.20037117 3.010242 -3.20037117 3.010242 -4.37467957 3.02069092 C-6.16486866 2.97132421 -6.16486866 2.97132421 -7.13842773 4.16113281 C-6.53514648 4.1753125 -5.93186523 4.18949219 -5.31030273 4.20410156 C-4.11147461 4.27564453 -4.11147461 4.27564453 -2.88842773 4.34863281 C-1.70506836 4.40083984 -1.70506836 4.40083984 -0.49780273 4.45410156 C3.05051889 5.51742311 3.94051999 6.99282833 5.86157227 10.16113281 C6.4430821 13.63251421 6.39844069 17.05843463 6.35766602 20.57128906 C6.35912125 21.5757457 6.36057648 22.58020233 6.36207581 23.61509705 C6.36041889 25.73406888 6.34888089 27.853053 6.328125 29.97192383 C6.29914179 33.21585128 6.30752655 36.45814687 6.32055664 39.70214844 C6.31431985 41.76270326 6.30592937 43.82325292 6.29516602 45.88378906 C6.29810165 46.8536525 6.30103729 47.82351593 6.30406189 48.82276917 C6.28503563 50.17954018 6.28503563 50.17954018 6.265625 51.5637207 C6.26022202 52.35694229 6.25481903 53.15016388 6.24925232 53.96742249 C5.76012108 56.7352003 4.7864701 58.13596442 2.86157227 60.16113281 C0.17407227 60.41113281 0.17407227 60.41113281 -2.13842773 60.16113281 C-1.49905273 59.85175781 -0.85967773 59.54238281 -0.20092773 59.22363281 C1.79768048 58.32661651 1.79768048 58.32661651 2.86157227 57.16113281 C2.95979342 55.69837877 2.98955591 54.23093992 2.9909668 52.76489258 C2.99411896 51.83044815 2.99727112 50.89600372 3.0005188 49.9332428 C2.99849457 48.91661057 2.99647034 47.89997833 2.99438477 46.85253906 C2.99534149 45.81548325 2.99629822 44.77842743 2.99728394 43.70994568 C2.99796595 41.51162658 2.99611017 39.31330549 2.99194336 37.11499023 C2.98660081 33.74165332 2.99188486 30.3684499 2.99829102 26.99511719 C2.99763013 24.86425752 2.99634876 22.73339793 2.99438477 20.60253906 C2.996409 19.58793106 2.99843323 18.57332306 3.0005188 17.52796936 C2.99736664 16.59037277 2.99421448 15.65277618 2.9909668 14.68676758 C2.9901712 13.85927505 2.98937561 13.03178253 2.98855591 12.17921448 C2.98888496 10.09062322 2.98888496 10.09062322 1.86157227 8.16113281 C-2.73425888 7.66483502 -2.73425888 7.66483502 -6.93920898 9.27441406 C-8.39442228 10.50735134 -9.7732193 11.82922215 -11.13842773 13.16113281 C-11.46842773 11.51113281 -11.79842773 9.86113281 -12.13842773 8.16113281 C-10.81842773 8.16113281 -9.49842773 8.16113281 -8.13842773 8.16113281 C-8.46842773 7.50113281 -8.79842773 6.84113281 -9.13842773 6.16113281 C-12.25175021 6.82981595 -12.25175021 6.82981595 -13.32592773 9.22363281 C-13.59405273 9.86300781 -13.86217773 10.50238281 -14.13842773 11.16113281 C-14.79842773 10.83113281 -15.45842773 10.50113281 -16.13842773 10.16113281 C-11.09438907 2.05464211 -11.09438907 2.05464211 -6.27207947 0.59698486 C-4.12535248 0.15846186 -2.18879219 0.02121684 0 0 Z " fill="#191731" transform="translate(30.138427734375,17.8388671875)"/>
<path d="M0 0 C1.89746094 -0.36749268 1.89746094 -0.36749268 4.234375 -0.35644531 C5.10868164 -0.35944641 5.98298828 -0.36244751 6.88378906 -0.36553955 C8.30256348 -0.34701935 8.30256348 -0.34701935 9.75 -0.328125 C11.2035791 -0.32531525 11.2035791 -0.32531525 12.68652344 -0.32244873 C14.73766514 -0.31571894 16.78879381 -0.30178617 18.83984375 -0.28125 C21.98709987 -0.25012757 25.13385535 -0.24028375 28.28125 -0.234375 C30.27083947 -0.22520399 32.26042382 -0.2148279 34.25 -0.203125 C35.66877441 -0.19675018 35.66877441 -0.19675018 37.11621094 -0.19024658 C37.99051758 -0.18063904 38.86482422 -0.17103149 39.765625 -0.16113281 C40.92239746 -0.15089081 40.92239746 -0.15089081 42.10253906 -0.14044189 C44 0 44 0 46 1 C47.92563944 4.03889066 48.24540297 6.39182382 48.22705078 9.95214844 C48.22689972 10.93286316 48.22674866 11.91357788 48.22659302 12.92401123 C48.21627045 13.97518127 48.20594788 15.02635132 48.1953125 16.109375 C48.1924826 17.19132141 48.18965271 18.27326782 48.18673706 19.38800049 C48.17554609 22.84211304 48.1504432 26.29596588 48.125 29.75 C48.11496881 32.09244417 48.1058432 34.43489241 48.09765625 36.77734375 C48.0756103 42.51831771 48.04214334 48.2591403 48 54 C47.34 54 46.68 54 46 54 C46 37.83 46 21.66 46 5 C45.34 5 44.68 5 44 5 C44 4.34 44 3.68 44 3 C42.6070874 3.00785522 42.6070874 3.00785522 41.18603516 3.01586914 C37.74576195 3.03289593 34.30553341 3.04544273 30.86523438 3.05493164 C29.37531834 3.05996514 27.88540726 3.06679242 26.39550781 3.07543945 C24.25584696 3.08754805 22.11625132 3.09323807 19.9765625 3.09765625 C18.68830566 3.10289307 17.40004883 3.10812988 16.07275391 3.11352539 C13 3 13 3 11 2 C10.01 3.485 10.01 3.485 9 5 C8.67 4.67 8.34 4.34 8 4 C6.31816052 3.76712992 4.6287584 3.58735834 2.9375 3.4375 C1.55884766 3.31181641 1.55884766 3.31181641 0.15234375 3.18359375 C-0.91306641 3.09271484 -0.91306641 3.09271484 -2 3 C-1.34 2.01 -0.68 1.02 0 0 Z " fill="#7F68F3" transform="translate(24,20)"/>
<path d="M0 0 C6.6 0 13.2 0 20 0 C20 2.31 20 4.62 20 7 C17.69 7 15.38 7 13 7 C13 16.57 13 26.14 13 36 C15.31 36 17.62 36 20 36 C20 37.98 20 39.96 20 42 C13.4 42 6.8 42 0 42 C0 40.02 0 38.04 0 36 C1.98 36 3.96 36 6 36 C6 26.43 6 16.86 6 7 C4.02 7 2.04 7 0 7 C0 4.69 0 2.38 0 0 Z M1 2 C1 2.99 1 3.98 1 5 C3.97 5.495 3.97 5.495 7 6 C7.33 16.23 7.66 26.46 8 37 C5.69 37 3.38 37 1 37 C1 38.32 1 39.64 1 41 C6.94 41 12.88 41 19 41 C19 39.68 19 38.36 19 37 C16.69 37 14.38 37 12 37 C12 26.44 12 15.88 12 5 C14.31 5 16.62 5 19 5 C19 4.01 19 3.02 19 2 C13.06 2 7.12 2 1 2 Z " fill="#211A3F" transform="translate(416,26)"/>
<path d="M0 0 C0.7734375 0.495 0.7734375 0.495 1.5625 1 C1.8925 0.67 2.2225 0.34 2.5625 0 C4.8725 0 7.1825 0 9.5625 0 C9.5625 9.9 9.5625 19.8 9.5625 30 C6.5625 30 3.5625 30 0.5625 30 C-0.0975 30.33 -0.7575 30.66 -1.4375 31 C-5.69946588 31.43540712 -9.35499516 31.47065428 -13.3125 29.75 C-16.50200003 27.12335292 -18.12989865 24.92280404 -19.4375 21 C-19.92316422 14.52759035 -20.37136705 8.47931482 -16.4375 3 C-11.76703338 -1.23261038 -5.94276044 -2.43805556 0 0 Z M-7.4375 1 C-7.1075 1.99 -6.7775 2.98 -6.4375 4 C-5.7775 4.33 -5.1175 4.66 -4.4375 5 C-5.38625 5.2475 -6.335 5.495 -7.3125 5.75 C-10.52443191 6.6857077 -10.52443191 6.6857077 -11.8125 9.125 C-12.01875 9.74375 -12.225 10.3625 -12.4375 11 C-12.4375 8.34223434 -11.81942943 5.62576483 -11.4375 3 C-13.36059422 3.03955898 -13.36059422 3.03955898 -15.4375 4 C-18.99064956 8.94902974 -19.28180985 14.12694355 -18.4375 20 C-17.22691423 23.38343202 -15.71983508 26.17623014 -12.61328125 28.171875 C-10.07362651 29.13849404 -8.0875548 29.26636534 -5.375 29.25 C-4.51777344 29.25515625 -3.66054687 29.2603125 -2.77734375 29.265625 C-0.16697202 29.14992488 -0.16697202 29.14992488 2.5625 27 C2.8925 27.66 3.2225 28.32 3.5625 29 C5.2125 29 6.8625 29 8.5625 29 C8.5625 19.76 8.5625 10.52 8.5625 1 C6.9125 1 5.2625 1 3.5625 1 C3.2325 1.66 2.9025 2.32 2.5625 3 C1.5725 2.34 0.5825 1.68 -0.4375 1 C-2.76949388 0.92094936 -5.10582622 0.91201231 -7.4375 1 Z " fill="#101317" transform="translate(188.4375,39)"/>
<path d="M0 0 C0.99 0.33 1.98 0.66 3 1 C3 1.66 3 2.32 3 3 C2.01 3.33 1.02 3.66 0 4 C0.33 5.98 0.66 7.96 1 10 C0.071875 10.556875 -0.85625 11.11375 -1.8125 11.6875 C-4.97177935 13.9795262 -6.28367635 15.56735271 -8 19 C-8.33 19.66 -8.66 20.32 -9 21 C-9.66 21 -10.32 21 -11 21 C-11 25.29 -11 29.58 -11 34 C-11.99 33.67 -12.98 33.34 -14 33 C-14 32.34 -14 31.68 -14 31 C-14.66 31 -15.32 31 -16 31 C-16.61775658 22.93484462 -15.5471682 15.97946324 -10.76171875 9.26171875 C-9.5 7.875 -9.5 7.875 -7 6 C-5.68 6 -4.36 6 -3 6 C-2.690625 5.195625 -2.38125 4.39125 -2.0625 3.5625 C-1 1 -1 1 0 0 Z " fill="#3C3F8B" transform="translate(19,23)"/>
<path d="M0 0 C6.625 -0.25 6.625 -0.25 10 2 C10.33 1.34 10.66 0.68 11 0 C12.65 0 14.3 0 16 0 C16 9.24 16 18.48 16 28 C14.68 28 13.36 28 12 28 C12 26.68 12 25.36 12 24 C11.01 23.67 10.02 23.34 9 23 C9.165 22.34 9.33 21.68 9.5 21 C10.36473678 15.81157934 11.01476156 10.58357165 8 6 C6.07308367 4.67619661 6.07308367 4.67619661 3.875 3.75 C3.15054688 3.41484375 2.42609375 3.0796875 1.6796875 2.734375 C1.12539062 2.49203125 0.57109375 2.2496875 0 2 C0 1.34 0 0.68 0 0 Z " fill="#333C4B" transform="translate(181,40)"/>
<path d="M0 0 C1.31677734 0.00580078 1.31677734 0.00580078 2.66015625 0.01171875 C4.9375 0.3125 4.9375 0.3125 6.9375 2.3125 C5.08357854 4.16642146 2.51296963 3.54794204 0.04296875 3.640625 C-3.23076132 4.68530324 -4.30064245 6.42054228 -6.0625 9.3125 C-6.54329519 12.66244801 -6.54329519 12.66244801 -6.3125 16.125 C-6.27640625 17.28644531 -6.2403125 18.44789062 -6.203125 19.64453125 C-6.15671875 20.52496094 -6.1103125 21.40539062 -6.0625 22.3125 C-5.14210938 22.77269531 -5.14210938 22.77269531 -4.203125 23.2421875 C-2.15625 24.265625 -0.109375 25.2890625 1.9375 26.3125 C1.9375 26.9725 1.9375 27.6325 1.9375 28.3125 C-5.41340153 27.94495492 -5.41340153 27.94495492 -8.5 24.9375 C-11.52988329 19.84729607 -11.57573104 15.0931022 -11.0625 9.3125 C-8.77048129 3.30959384 -6.67084435 -0.12771867 0 0 Z " fill="#343D4C" transform="translate(284.0625,39.6875)"/>
<path d="M0 0 C6.80299252 -0.65835411 6.80299252 -0.65835411 10.5 1.375 C12 3 12 3 12 5 C12.99 5 13.98 5 15 5 C14.84660156 5.63292969 14.69320312 6.26585937 14.53515625 6.91796875 C13.81937036 11.04026849 13.63849837 15.13766507 13.4375 19.3125 C13.39431641 20.14845703 13.35113281 20.98441406 13.30664062 21.84570312 C13.20114693 23.89696935 13.10012685 25.9484648 13 28 C11.68 28 10.36 28 9 28 C8.97494385 27.37955811 8.9498877 26.75911621 8.92407227 26.11987305 C8.80803279 23.30887603 8.68534241 20.49820759 8.5625 17.6875 C8.52318359 16.71103516 8.48386719 15.73457031 8.44335938 14.72851562 C8.40146484 13.79072266 8.35957031 12.85292969 8.31640625 11.88671875 C8.27974854 11.02264404 8.24309082 10.15856934 8.20532227 9.26831055 C8.07252646 6.8352174 8.07252646 6.8352174 7 4 C4.03 3.67 1.06 3.34 -2 3 C-1.34 2.01 -0.68 1.02 0 0 Z " fill="#353E50" transform="translate(130,40)"/>
<path d="M0 0 C1.24910156 -0.01836914 1.24910156 -0.01836914 2.5234375 -0.03710938 C3.71839844 -0.04000977 3.71839844 -0.04000977 4.9375 -0.04296875 C6.03384766 -0.04913208 6.03384766 -0.04913208 7.15234375 -0.05541992 C9 0.1875 9 0.1875 11 2.1875 C10.46428571 5.72321429 10.46428571 5.72321429 9 7.1875 C6.01133358 7.28761296 3.05089547 7.32623975 0.0625 7.3125 C-0.77474609 7.31636719 -1.61199219 7.32023437 -2.47460938 7.32421875 C-3.27576172 7.32292969 -4.07691406 7.32164063 -4.90234375 7.3203125 C-5.63960693 7.31918457 -6.37687012 7.31805664 -7.13647461 7.31689453 C-9 7.1875 -9 7.1875 -11 6.1875 C-11 4.5375 -11 2.8875 -11 1.1875 C-7.58173253 -0.52163373 -3.76645237 0.00291521 0 0 Z " fill="#1F1B3E" transform="translate(54,32.8125)"/>
<path d="M0 0 C1.13598633 0.00483398 1.13598633 0.00483398 2.29492188 0.00976562 C3.47344727 0.02233398 3.47344727 0.02233398 4.67578125 0.03515625 C5.47306641 0.03966797 6.27035156 0.04417969 7.09179688 0.04882812 C9.05732382 0.06059775 11.0228121 0.07853277 12.98828125 0.09765625 C13.64828125 1.74765625 14.30828125 3.39765625 14.98828125 5.09765625 C12.98828125 7.09765625 12.98828125 7.09765625 11.03295898 7.34057617 C10.25380127 7.33646729 9.47464355 7.3323584 8.671875 7.328125 C7.82560547 7.32619141 6.97933594 7.32425781 6.10742188 7.32226562 C5.22248047 7.31001953 4.33753906 7.29777344 3.42578125 7.28515625 C2.53697266 7.28451172 1.64816406 7.28386719 0.73242188 7.28320312 C-5.87150778 7.23786722 -5.87150778 7.23786722 -7.01171875 6.09765625 C-7.05235707 4.4314851 -7.05443975 2.7637753 -7.01171875 1.09765625 C-4.30455633 0.19526878 -2.77395107 -0.02085677 0 0 Z " fill="#383582" transform="translate(50.01171875,55.90234375)"/>
<path d="M0 0 C6.96165192 -0.4719764 6.96165192 -0.4719764 10.75 1.25 C14.42799334 5.7453252 13.52388276 10.64347876 13.3125 16.25 C13.27866211 17.93996094 13.27866211 17.93996094 13.24414062 19.6640625 C13.18524254 22.44405232 13.10304201 25.22135332 13 28 C11.68 28 10.36 28 9 28 C8.98541748 27.37955811 8.97083496 26.75911621 8.95581055 26.11987305 C8.88133412 23.30845367 8.78467436 20.49822251 8.6875 17.6875 C8.66494141 16.71103516 8.64238281 15.73457031 8.61914062 14.72851562 C8.58369141 13.79072266 8.54824219 12.85292969 8.51171875 11.88671875 C8.48553467 11.02264404 8.45935059 10.15856934 8.43237305 9.26831055 C7.91084372 6.53226935 7.25853675 5.6040578 5 4 C1.37464024 3.7496423 1.37464024 3.7496423 -2 4 C-1.34 2.68 -0.68 1.36 0 0 Z " fill="#333C4D" transform="translate(360,40)"/>
<path d="M0 0 C3.49081556 0.86950717 4.79922735 1.70998989 7.1328125 4.53125 C7.76267807 8.62692758 7.60107212 12.65002575 7.4453125 16.78125 C7.42275391 17.90789063 7.40019531 19.03453125 7.37695312 20.1953125 C7.31805504 22.97530232 7.23585451 25.75260332 7.1328125 28.53125 C5.8128125 28.53125 4.4928125 28.53125 3.1328125 28.53125 C3.11822998 27.91080811 3.10364746 27.29036621 3.08862305 26.65112305 C3.01414662 23.83970367 2.91748686 21.02947251 2.8203125 18.21875 C2.79775391 17.24228516 2.77519531 16.26582031 2.75195312 15.25976562 C2.71650391 14.32197266 2.68105469 13.38417969 2.64453125 12.41796875 C2.61834717 11.55389404 2.59216309 10.68981934 2.56518555 9.79956055 C2.05014335 7.09755204 1.30028123 6.17873847 -0.8671875 4.53125 C-2.92082356 4.1705869 -2.92082356 4.1705869 -5.0546875 4.34375 C-6.3128125 4.405625 -7.5709375 4.4675 -8.8671875 4.53125 C-6.76224773 0.32137045 -4.55798347 0.07149778 0 0 Z " fill="#353F4F" transform="translate(154.8671875,39.46875)"/>
<path d="M0 0 C1.32 0 2.64 0 4 0 C4 1.65 4 3.3 4 5 C4.66 5 5.32 5 6 5 C5.67 12.59 5.34 20.18 5 28 C3.35 28 1.7 28 0 28 C0 18.76 0 9.52 0 0 Z " fill="#313A49" transform="translate(307,40)"/>
<path d="M0 0 C1.32 0 2.64 0 4 0 C4 1.65 4 3.3 4 5 C4.66 5 5.32 5 6 5 C5.67 12.59 5.34 20.18 5 28 C3.35 28 1.7 28 0 28 C0 18.76 0 9.52 0 0 Z " fill="#353F52" transform="translate(330,40)"/>
<path d="M0 0 C5.23724185 0.09408219 8.32822178 0.65433862 12.25 4.375 C14.82702109 7.81102812 15.25 8.97572868 15.25 13.375 C12 13.6875 12 13.6875 8.25 13.375 C6.87131719 11.74564759 5.53725907 10.07750393 4.25 8.375 C1.30270463 7.21688612 1.30270463 7.21688612 -1.75 7.375 C-4.74342603 9.03801446 -5.82289069 10.48433604 -7.75 13.375 C-7.25061251 9.67953259 -6.74584888 7.67538396 -3.75 5.375 C-1.48828125 5.08203125 -1.48828125 5.08203125 0.9375 5.1875 C1.74574219 5.21457031 2.55398437 5.24164062 3.38671875 5.26953125 C4.00160156 5.30433594 4.61648437 5.33914062 5.25 5.375 C5.25 4.055 5.25 2.735 5.25 1.375 C-1.185 1.87 -1.185 1.87 -7.75 2.375 C-5.09500624 -0.27999376 -3.70036703 0.04602447 0 0 Z " fill="#262C38" transform="translate(96.75,26.625)"/>
<path d="M0 0 C0.83265381 0.00523682 1.66530762 0.01047363 2.52319336 0.01586914 C3.42231445 0.0190918 4.32143555 0.02231445 5.24780273 0.02563477 C6.66609375 0.03820313 6.66609375 0.03820313 8.11303711 0.05102539 C9.06243164 0.05553711 10.01182617 0.06004883 10.98999023 0.06469727 C13.34356776 0.07652429 15.69702188 0.09300514 18.05053711 0.11352539 C19.17553711 3.86352539 19.17553711 3.86352539 18.05053711 6.11352539 C11.45053711 6.11352539 4.85053711 6.11352539 -1.94946289 6.11352539 C-2.27946289 4.46352539 -2.60946289 2.81352539 -2.94946289 1.11352539 C-1.94946289 0.11352539 -1.94946289 0.11352539 0 0 Z " fill="#443D89" transform="translate(45.949462890625,44.886474609375)"/>
<path d="M0 0 C1.32 0 2.64 0 4 0 C5.125 7.625 5.125 7.625 4 11 C3.92026524 12.33525717 3.89228662 13.67412083 3.90234375 15.01171875 C3.90556641 15.76904297 3.90878906 16.52636719 3.91210938 17.30664062 C3.92048828 18.09232422 3.92886719 18.87800781 3.9375 19.6875 C3.94201172 20.48478516 3.94652344 21.28207031 3.95117188 22.10351562 C3.9629415 24.06904257 3.98087652 26.03453085 4 28 C2.68 28 1.36 28 0 28 C0 18.76 0 9.52 0 0 Z " fill="#343D4E" transform="translate(120,40)"/>
<path d="M0 0 C4 0 4 0 5.44921875 1.3203125 C8.15580493 5.26492706 9.4238694 8.16050295 10 13 C10.66 13.33 11.32 13.66 12 14 C13.0089034 9.76353233 13.0089034 9.76353233 12.0625 5.625 C11.711875 5.08875 11.36125 4.5525 11 4 C17.875 6.875 17.875 6.875 19 8 C19.3125 11.375 19.3125 11.375 19 15 C17.3125 17 17.3125 17 15 18 C12.18099161 17.8624874 10.54230653 17.35530428 8.1875 15.8125 C7 14 7 14 7.0625 11.125 C6.98309551 7.1547756 5.57766849 5.89987705 3 3 C3 2.34 3 1.68 3 1 C2.01 0.67 1.02 0.34 0 0 Z " fill="#363C8D" transform="translate(14,55)"/>
<path d="M0 0 C2 2 2 2 2.25 5.5 C2 9 2 9 0 11 C-1.99571323 11.67939174 -3.99594773 12.34561559 -6 13 C-6.99 13.66 -7.98 14.32 -9 15 C-7.98110061 12.72707059 -7.19097369 11.16975439 -5.3125 9.5 C-4.879375 9.005 -4.44625 8.51 -4 8 C-4.23769206 5.8817921 -4.23769206 5.8817921 -5 4 C-5 3.67 -5 3.34 -5 3 C-5.99 3 -6.98 3 -8 3 C-7.896875 3.886875 -7.79375 4.77375 -7.6875 5.6875 C-8.09498572 10.00684858 -9.7722703 11.25642975 -13 14 C-13.99 13.67 -14.98 13.34 -16 13 C-14.576875 11.9790625 -14.576875 11.9790625 -13.125 10.9375 C-9.67759633 8.11321859 -8.99795375 5.32446623 -8 1 C-5.23749964 -0.38125018 -3.05268901 -0.19079306 0 0 Z " fill="#31316F" transform="translate(31,31)"/>
<path d="M0 0 C0.66 0.33 1.32 0.66 2 1 C2 2.65 2 4.3 2 6 C-2.75 7 -2.75 7 -5 7 C-5 6.34 -5 5.68 -5 5 C-3.35 5 -1.7 5 0 5 C0 4.01 0 3.02 0 2 C-2.97 2.66 -5.94 3.32 -9 4 C-9.66 7.3 -10.32 10.6 -11 14 C-12.98 14 -14.96 14 -17 14 C-17 15.32 -17 16.64 -17 18 C-15.02 18 -13.04 18 -11 18 C-11 25.92 -11 33.84 -11 42 C-9.35 42 -7.7 42 -6 42 C-6 42.33 -6 42.66 -6 43 C-7.98 43 -9.96 43 -12 43 C-12 35.08 -12 27.16 -12 19 C-13.98 19 -15.96 19 -18 19 C-18 17.02 -18 15.04 -18 13 C-16.02 13 -14.04 13 -12 13 C-12.0928125 11.14375 -12.0928125 11.14375 -12.1875 9.25 C-12.1875 6.36821352 -12.08376228 5.15555852 -10.6875 2.5625 C-7.47739342 -0.40982091 -4.16341553 -0.17716662 0 0 Z " fill="#0B0E10" transform="translate(267,26)"/>
<path d="M0 0 C0.33 0 0.66 0 1 0 C1 10.89 1 21.78 1 33 C1.99 33 2.98 33 4 33 C4 32.34 4 31.68 4 31 C6.31 31 8.62 31 11 31 C11 32.32 11 33.64 11 35 C5.06 35 -0.88 35 -7 35 C-7 33.68 -7 32.36 -7 31 C-4.69 31 -2.38 31 0 31 C0 20.77 0 10.54 0 0 Z " fill="#5E4ACA" transform="translate(424,32)"/>
<path d="M0 0 C0.66 0.33 1.32 0.66 2 1 C1.814375 1.61875 1.62875 2.2375 1.4375 2.875 C0.76313824 5.04160178 0.76313824 5.04160178 2 7 C1.01 7 0.02 7 -1 7 C-3.18768181 10.7919818 -4 14.62731886 -4 19 C-4.99 19 -5.98 19 -7 19 C-7.33 18.01 -7.66 17.02 -8 16 C-8.66 16 -9.32 16 -10 16 C-10 17.65 -10 19.3 -10 21 C-10.99 20.67 -11.98 20.34 -13 20 C-13.6875 17.6875 -13.6875 17.6875 -14 15 C-12.0172414 12.13601536 -8.957249 10.74401864 -6 9 C-3.4345406 6.4345406 -3.45953913 4.52313332 -3 1 C-2.01 0.67 -1.02 0.34 0 0 Z " fill="#5456CF" transform="translate(26,33)"/>
<path d="M0 0 C0 0.99 0 1.98 0 3 C-4.43705524 6.97804952 -8.28235073 7.12129653 -14.07421875 7.09765625 C-15.09996758 7.09553383 -15.09996758 7.09553383 -16.1464386 7.09336853 C-18.32683722 7.08777876 -20.50713251 7.07522822 -22.6875 7.0625 C-24.16731622 7.05748367 -25.64713406 7.052921 -27.12695312 7.04882812 C-30.75133557 7.03781271 -34.3756577 7.02055512 -38 7 C-37.67 6.34 -37.34 5.68 -37 5 C-36.29504395 4.98018066 -35.59008789 4.96036133 -34.86376953 4.93994141 C-31.61718789 4.84368731 -28.3711635 4.73442124 -25.125 4.625 C-24.01640625 4.5940625 -22.9078125 4.563125 -21.765625 4.53125 C-10.04598181 4.68263036 -10.04598181 4.68263036 0 0 Z " fill="#211F47" transform="translate(72,76)"/>
<path d="M0 0 C0.66 1.32 1.32 2.64 2 4 C2.99 3.01 3.98 2.02 5 1 C5.66 1.33 6.32 1.66 7 2 C6.34 2.66 5.68 3.32 5 4 C5.20209557 7.14365099 5.20209557 7.14365099 5.875 10.625 C6.07867187 11.81351563 6.28234375 13.00203125 6.4921875 14.2265625 C6.65976563 15.14179687 6.82734375 16.05703125 7 17 C5.02 16.67 3.04 16.34 1 16 C1 15.34 1 14.68 1 14 C0.34 14 -0.32 14 -1 14 C-0.67 15.32 -0.34 16.64 0 18 C-2.89932357 15.60490662 -3.50168276 13.68754757 -4 10 C-3.67 10.66 -3.34 11.32 -3 12 C-2.34 11.67 -1.68 11.34 -1 11 C-0.5316735 8.41394668 -0.5316735 8.41394668 -0.375 5.4375 C-0.30023438 4.42558594 -0.22546875 3.41367187 -0.1484375 2.37109375 C-0.09945313 1.58863281 -0.05046875 0.80617187 0 0 Z M2 10 C3 12 3 12 3 12 Z M3 12 C3.33 12.99 3.66 13.98 4 15 C4 14.01 4 13.02 4 12 C3.67 12 3.34 12 3 12 Z " fill="#373C83" transform="translate(8,44)"/>
<path d="M0 0 C1.32 0 2.64 0 4 0 C4.1953125 2.01822917 4.390625 4.03645833 4.5859375 6.0546875 C4.86374749 8.22668245 4.86374749 8.22668245 7 10 C9.57061311 10.64767793 9.57061311 10.64767793 12 11 C12 12.65 12 14.3 12 16 C7.53951582 15.12539526 5.51363287 14.45899107 2.0625 11.375 C-0.56228111 7.07990364 -0.42512874 4.93149341 0 0 Z " fill="#5660E3" transform="translate(13,63)"/>
<path d="M0 0 C0.66 0.33 1.32 0.66 2 1 C1.67 6.61 1.34 12.22 1 18 C0.01 17.67 -0.98 17.34 -2 17 C-2 16.34 -2 15.68 -2 15 C-2.66 15 -3.32 15 -4 15 C-4.027193 13.41676312 -4.04648306 11.83338938 -4.0625 10.25 C-4.07410156 9.36828125 -4.08570313 8.4865625 -4.09765625 7.578125 C-4.00640071 5.16897863 -3.88409929 3.2430862 -3 1 C-2.01 0.67 -1.02 0.34 0 0 Z " fill="#3F4293" transform="translate(7,39)"/>
<path d="M0 0 C0.99 0.33 1.98 0.66 3 1 C5.2825699 1.15145099 7.56887706 1.24886979 9.85546875 1.31640625 C10.51710526 1.33718735 11.17874176 1.35796844 11.86042786 1.37937927 C13.96934852 1.44464727 16.07839135 1.50365344 18.1875 1.5625 C19.61915315 1.60570689 21.05079404 1.64932188 22.48242188 1.69335938 C25.98815154 1.80030506 29.49401786 1.90163641 33 2 C32.67 2.66 32.34 3.32 32 4 C18.14 3.505 18.14 3.505 4 3 C4.33 3.99 4.66 4.98 5 6 C5.068991 8.06145107 5.08467727 10.12501401 5.0625 12.1875 C5.05347656 13.27417969 5.04445313 14.36085938 5.03515625 15.48046875 C5.02355469 16.31191406 5.01195312 17.14335938 5 18 C4.67 18 4.34 18 4 18 C3.67 14.37 3.34 10.74 3 7 C2.01 7 1.02 7 0 7 C-0.38133299 5.0085944 -0.71325582 3.00720923 -1 1 C-0.67 0.67 -0.34 0.34 0 0 Z " fill="#6158C6" transform="translate(35,21)"/>
<path d="M0 0 C0.33 0 0.66 0 1 0 C1.33 6.93 1.66 13.86 2 21 C3.73956658 19.26043342 3.37190386 16.8063378 3.5625 14.4375 C3.64628906 13.42558594 3.73007812 12.41367187 3.81640625 11.37109375 C3.87699219 10.58863281 3.93757813 9.80617188 4 9 C4.33 9 4.66 9 5 9 C5 15.27 5 21.54 5 28 C3.35 28 1.7 28 0 28 C0 18.76 0 9.52 0 0 Z " fill="#29303E" transform="translate(330,40)"/>
<path d="M0 0 C2.9375 1.3125 2.9375 1.3125 5 3 C5 3.99 5 4.98 5 6 C4.505 5.505 4.01 5.01 3.5 4.5 C-0.11630158 2.33021905 -2.82231616 2.79111581 -7 3 C-7.33 3.66 -7.66 4.32 -8 5 C-6.02 5 -4.04 5 -2 5 C-2 5.33 -2 5.66 -2 6 C-2.9075 6.2475 -3.815 6.495 -4.75 6.75 C-8.10351489 8.03981342 -9.67708236 9.31971042 -12 12 C-11.67 10.35 -11.34 8.7 -11 7 C-11.99 7 -12.98 7 -14 7 C-12.98929671 4.3354186 -12.0600516 3.04804128 -9.8125 1.25 C-6.25921457 -0.32923797 -3.85687108 -0.41323619 0 0 Z " fill="#15191F" transform="translate(156,38)"/>
<path d="M0 0 C0.33 0 0.66 0 1 0 C1 9.57 1 19.14 1 29 C2.65 29 4.3 29 6 29 C5.94875977 28.44014404 5.89751953 27.88028809 5.84472656 27.3034668 C5.62475397 24.76615137 5.43705733 22.22744508 5.25 19.6875 C5.16878906 18.80642578 5.08757812 17.92535156 5.00390625 17.01757812 C4.83964702 14.61756821 4.72156983 12.39024246 5 10 C6.984375 7.89453125 6.984375 7.89453125 9 7 C8.84152588 7.5662207 8.68305176 8.13244141 8.51977539 8.71582031 C7.99214152 11.0345345 7.795844 13.17358397 7.68359375 15.546875 C7.64169922 16.39121094 7.59980469 17.23554687 7.55664062 18.10546875 C7.51732422 18.97816406 7.47800781 19.85085937 7.4375 20.75 C7.37272461 22.08224609 7.37272461 22.08224609 7.30664062 23.44140625 C7.20086385 25.62745963 7.09877454 27.81362089 7 30 C4.69 30 2.38 30 0 30 C0 20.1 0 10.2 0 0 Z " fill="#0A0C0E" transform="translate(118,39)"/>
<path d="M0 0 C3.9375 0.6875 3.9375 0.6875 6.4375 2.4375 C8.71332791 7.36846048 8.5927934 12.33847709 7.9375 17.6875 C7.2775 18.6775 6.6175 19.6675 5.9375 20.6875 C5.2775 20.3575 4.6175 20.0275 3.9375 19.6875 C4.5975 18.6975 5.2575 17.7075 5.9375 16.6875 C6.51058803 12.64611299 6.44353314 8.90793287 4.875 5.125 C2.86000901 3.39926512 2.86000901 3.39926512 -0.5625 3.125 C-4.12375106 3.32404574 -4.12375106 3.32404574 -5.9375 5.75 C-7.20987544 9.07231365 -7.71611647 12.15438799 -8.0625 15.6875 C-8.3925 15.6875 -8.7225 15.6875 -9.0625 15.6875 C-9.52319608 11.0805392 -9.86022667 7.02684623 -7.0625 3.125 C-4.16010316 0.76680257 -3.49049526 0.24792303 0 0 Z " fill="#16191E" transform="translate(286.0625,42.3125)"/>
<path d="M0 0 C0.99 0 1.98 0 3 0 C3.83698386 2.45714547 4.66972424 4.91558857 5.5 7.375 C5.73847656 8.07367188 5.97695313 8.77234375 6.22265625 9.4921875 C8 14.7734375 8 14.7734375 8 17 C4.04 17 0.08 17 -4 17 C-4 15.35 -4 13.7 -4 12 C-3.34 12 -2.68 12 -2 12 C-2.061875 10.700625 -2.061875 10.700625 -2.125 9.375 C-1.99542279 5.87641532 -1.23980344 3.25448403 0 0 Z M1 3 C-0.32 7.29 -1.64 11.58 -3 16 C-0.03 16 2.94 16 6 16 C5.55005243 14.20620902 5.08975857 12.41501072 4.625 10.625 C4.36976563 9.62726562 4.11453125 8.62953125 3.8515625 7.6015625 C3.17595681 4.87458985 3.17595681 4.87458985 1 3 Z " fill="#28204D" transform="translate(394,35)"/>
<path d="M0 0 C6.27 0 12.54 0 19 0 C19 0.99 19 1.98 19 3 C12.73 3 6.46 3 0 3 C0 2.01 0 1.02 0 0 Z " fill="#7060E4" transform="translate(44,35)"/>
<path d="M0 0 C0.99 0 1.98 0 3 0 C2.35812082 5.13503344 1.31727753 9.9943454 0 15 C-0.99 14.67 -1.98 14.34 -3 14 C-2.88570603 12.22844346 -2.75816963 10.45773771 -2.625 8.6875 C-2.55539063 7.70136719 -2.48578125 6.71523438 -2.4140625 5.69921875 C-2 3 -2 3 0 0 Z " fill="#353E4F" transform="translate(174,42)"/>
<path d="M0 0 C0.33 0.66 0.66 1.32 1 2 C1.66 2 2.32 2 3 2 C3 2.66 3 3.32 3 4 C5.31 3.34 7.62 2.68 10 2 C9.67 3.32 9.34 4.64 9 6 C7.02 6.33 5.04 6.66 3 7 C5.97 7.495 5.97 7.495 9 8 C9 8.66 9 9.32 9 10 C5.8125 10.375 5.8125 10.375 2 10 C-0.1403498 8.18811972 -1.38988302 6.34198833 -3 4 C-2.34 4 -1.68 4 -1 4 C-0.67 2.68 -0.34 1.36 0 0 Z " fill="#3E4397" transform="translate(25,74)"/>
<path d="M0 0 C2.125 0.375 2.125 0.375 4 1 C3.67 1.33 3.34 1.66 3 2 C5.97 2.33 8.94 2.66 12 3 C12 3.33 12 3.66 12 4 C10.7625 4.04125 9.525 4.0825 8.25 4.125 C4.40735288 4.56785827 4.14481969 4.82259588 1.5 8.0625 C0.7575 9.5165625 0.7575 9.5165625 0 11 C-0.66 9.68 -1.32 8.36 -2 7 C-0.68 6.67 0.64 6.34 2 6 C1.67 5.34 1.34 4.68 1 4 C-2.11332248 4.66868314 -2.11332248 4.66868314 -3.1875 7.0625 C-3.455625 7.701875 -3.72375 8.34125 -4 9 C-4.66 8.67 -5.32 8.34 -6 8 C-2.25 2.25 -2.25 2.25 0 0 Z " fill="#37367A" transform="translate(20,20)"/>
<path d="M0 0 C1.65 0 3.3 0 5 0 C5.45375 0.94875 5.9075 1.8975 6.375 2.875 C7.80238254 6.00313679 7.80238254 6.00313679 10 8 C8.35 8.66 6.7 9.32 5 10 C2.08772731 6.71195019 0.50298788 4.40114397 0 0 Z " fill="#323B4B" transform="translate(83,56)"/>
<path d="M0 0 C0.33 0.99 0.66 1.98 1 3 C2.06541016 2.87431641 2.06541016 2.87431641 3.15234375 2.74609375 C4.07144531 2.64425781 4.99054687 2.54242188 5.9375 2.4375 C7.31228516 2.28087891 7.31228516 2.28087891 8.71484375 2.12109375 C9.46894531 2.08113281 10.22304688 2.04117188 11 2 C12 3 12 3 12.1875 6.4375 C12 10 12 10 10 12 C6.41411676 11.61233695 3.30012079 10.41433748 0 9 C0 8.34 0 7.68 0 7 C1.65 7 3.3 7 5 7 C5.33 7.66 5.66 8.32 6 9 C7.32 9 8.64 9 10 9 C10.33 7.35 10.66 5.7 11 4 C7.37 4 3.74 4 0 4 C0 2.68 0 1.36 0 0 Z " fill="#1D1F42" transform="translate(21,46)"/>
<path d="M0 0 C6.58976117 0.57302271 14.20320736 2.20320736 19 7 C19.3125 9.4375 19.3125 9.4375 19 12 C17.5 13.8125 17.5 13.8125 16 15 C15.34 14.67 14.68 14.34 14 14 C14.66 13.34 15.32 12.68 16 12 C16.64767793 9.42938689 16.64767793 9.42938689 17 7 C16.443125 6.81824219 15.88625 6.63648438 15.3125 6.44921875 C10.15803009 4.75137815 5.06989385 2.93577765 0 1 C0 0.67 0 0.34 0 0 Z " fill="#0D0F13" transform="translate(88,48)"/>
<path d="M0 0 C2.1640625 0.4296875 2.1640625 0.4296875 4.7265625 2.8046875 C6.1640625 5.4296875 6.1640625 5.4296875 6.1640625 7.4296875 C7.8140625 7.4296875 9.4640625 7.4296875 11.1640625 7.4296875 C11.4940625 6.4396875 11.8240625 5.4496875 12.1640625 4.4296875 C12.1640625 5.7496875 12.1640625 7.0696875 12.1640625 8.4296875 C8.9140625 8.7421875 8.9140625 8.7421875 5.1640625 8.4296875 C3.78537969 6.80033509 2.45132157 5.13219143 1.1640625 3.4296875 C-1.78323287 2.27157362 -1.78323287 2.27157362 -4.8359375 2.4296875 C-7.82936353 4.09270196 -8.90882819 5.53902354 -10.8359375 8.4296875 C-9.86390889 1.23667579 -6.88533742 -0.20185028 0 0 Z " fill="#14171D" transform="translate(99.8359375,31.5703125)"/>
<path d="M0 0 C1.32 0 2.64 0 4 0 C8.19852661 4.79831612 9.801074 8.78738344 11 15 C13.31 15 15.62 15 18 15 C16.8125 16.5625 16.8125 16.5625 15 18 C12.20891823 17.86044591 10.52222056 17.34214451 8.1875 15.8125 C7 14 7 14 7.0625 11.125 C6.98309551 7.1547756 5.57766849 5.89987705 3 3 C3 2.34 3 1.68 3 1 C2.01 0.67 1.02 0.34 0 0 Z " fill="#0D0E1D" transform="translate(14,55)"/>
<path d="M0 0 C0.33 0 0.66 0 1 0 C0.63495936 5.66442374 -0.0554321 10.00703705 -3 15 C-3.66 15 -4.32 15 -5 15 C-4.72569093 8.82804592 -3.96185965 4.82851645 0 0 Z " fill="#7056E9" transform="translate(390,41)"/>
<path d="M0 0 C0.125 6.625 0.125 6.625 -1 10 C-2.65 10 -4.3 10 -6 10 C-5.67112602 6.38238619 -5.37334709 4.44334967 -3 1.625 C-1 0 -1 0 0 0 Z " fill="#5C4ABF" transform="translate(386,57)"/>
<path d="M0 0 C1.04005702 3.38018531 1.08004482 6.4780279 1 10 C1.66 10.33 2.32 10.66 3 11 C3 9.02 3 7.04 3 5 C3.33 5 3.66 5 4 5 C4.33 7.97 4.66 10.94 5 14 C4.34 14 3.68 14 3 14 C2.67 14.99 2.34 15.98 2 17 C0 16 0 16 -1 13 C-1.09308544 11.33541327 -1.12996185 9.66718003 -1.125 8 C-1.12757813 7.13375 -1.13015625 6.2675 -1.1328125 5.375 C-1 3 -1 3 0 0 Z " fill="#2B3441" transform="translate(171,46)"/>
<path d="M0 0 C0.33 0 0.66 0 1 0 C1.125 3.375 1.125 3.375 1 7 C-1.4755848 9.4755848 -3.69948753 9.92228164 -7 11 C-7.99 11.66 -8.98 12.32 -10 13 C-8.98110061 10.72707059 -8.19097369 9.16975439 -6.3125 7.5 C-5.879375 7.005 -5.44625 6.51 -5 6 C-5.22757731 3.83700789 -5.22757731 3.83700789 -6 2 C-5.01 2 -4.02 2 -3 2 C-3 3.32 -3 4.64 -3 6 C-2.01 6 -1.02 6 0 6 C0 4.02 0 2.04 0 0 Z " fill="#272855" transform="translate(32,33)"/>
<path d="M0 0 C0.99 0.33 1.98 0.66 3 1 C3 1.66 3 2.32 3 3 C2.01 3.33 1.02 3.66 0 4 C0 5.65 0 7.3 0 9 C-1.65 9.66 -3.3 10.32 -5 11 C-5.33 9.68 -5.66 8.36 -6 7 C-5.01 6.67 -4.02 6.34 -3 6 C-1.84478498 3.52869082 -1.84478498 3.52869082 -1 1 C-0.67 0.67 -0.34 0.34 0 0 Z " fill="#6361E3" transform="translate(19,23)"/>
<path d="M0 0 C3.0390625 -0.29296875 3.0390625 -0.29296875 6.625 -0.1875 C7.81351563 -0.16042969 9.00203125 -0.13335938 10.2265625 -0.10546875 C11.14179687 -0.07066406 12.05703125 -0.03585938 13 0 C11.68 1.65 10.36 3.3 9 5 C8.67 4.67 8.34 4.34 8 4 C6.31816052 3.76712992 4.6287584 3.58735834 2.9375 3.4375 C1.55884766 3.31181641 1.55884766 3.31181641 0.15234375 3.18359375 C-0.91306641 3.09271484 -0.91306641 3.09271484 -2 3 C-1.34 2.01 -0.68 1.02 0 0 Z " fill="#6A64EF" transform="translate(24,20)"/>
<path d="M0 0 C0.66 0.33 1.32 0.66 2 1 C2 6.28 2 11.56 2 17 C1.01 17 0.02 17 -1 17 C-0.67 11.39 -0.34 5.78 0 0 Z " fill="#354051" transform="translate(209,51)"/>
<path d="M0 0 C0.99 0 1.98 0 3 0 C3.33 0.66 3.66 1.32 4 2 C6.01669827 3.13350534 6.01669827 3.13350534 8 4 C7.01 4 6.02 4 5 4 C4.67 5.98 4.34 7.96 4 10 C3.01 9.67 2.02 9.34 1 9 C0.67 6.03 0.34 3.06 0 0 Z " fill="#4F58D3" transform="translate(22,59)"/>
<path d="M0 0 C0 1.65 0 3.3 0 5 C-1.65 5.33 -3.3 5.66 -5 6 C-5.33 5.01 -5.66 4.02 -6 3 C-6.99 2.67 -7.98 2.34 -9 2 C-5.86501708 0.14223235 -3.62528568 -0.20140476 0 0 Z " fill="#565BDF" transform="translate(32,50)"/>
<path d="M0 0 C0.66 0.33 1.32 0.66 2 1 C1.34 1.66 0.68 2.32 0 3 C0.20209557 6.14365099 0.20209557 6.14365099 0.875 9.625 C1.07867188 10.81351563 1.28234375 12.00203125 1.4921875 13.2265625 C1.65976563 14.14179687 1.82734375 15.05703125 2 16 C1.01 15.67 0.02 15.34 -1 15 C-1.625 13.0625 -1.625 13.0625 -2 11 C-2.33 10.34 -2.66 9.68 -3 9 C-3.46153846 3.57692308 -3.46153846 3.57692308 -1.5 1.125 C-1.005 0.75375 -0.51 0.3825 0 0 Z " fill="#06070E" transform="translate(13,45)"/>
<path d="M0 0 C5.94 0 11.88 0 18 0 C17.67 0.99 17.34 1.98 17 3 C17 2.34 17 1.68 17 1 C13.7 1 10.4 1 7 1 C6.67 1.99 6.34 2.98 6 4 C3.03 3.505 3.03 3.505 0 3 C0 2.01 0 1.02 0 0 Z " fill="#614BD6" transform="translate(417,28)"/>
<path d="M0 0 C0.66 0 1.32 0 2 0 C2 0.99 2 1.98 2 3 C6.95 2.67 11.9 2.34 17 2 C17 1.34 17 0.68 17 0 C18.32 0.33 19.64 0.66 21 1 C20.67 1.99 20.34 2.98 20 4 C13.73 4 7.46 4 1 4 C0.67 2.68 0.34 1.36 0 0 Z " fill="#4C4BAA" transform="translate(44,58)"/>
<path d="M0 0 C0.33 0 0.66 0 1 0 C1.33 4.62 1.66 9.24 2 14 C1.01 13.67 0.02 13.34 -1 13 C-2.5121867 9.97562661 -2.17263369 7.33758466 -2 4 C-1 1.5625 -1 1.5625 0 0 Z " fill="#5D64EA" transform="translate(6,43)"/>
<path d="M0 0 C2.31 0 4.62 0 7 0 C6.67 0.66 6.34 1.32 6 2 C4.35 1.67 2.7 1.34 1 1 C3.23462006 5.79016959 5.48901975 9.98745115 9 14 C5.49188148 13.02552263 4.06595224 12.07842969 1.6875 9.25 C-0.11001082 5.78812732 -0.36516955 3.83428028 0 0 Z " fill="#06070A" transform="translate(82,55)"/>
<path d="M0 0 C3.07921132 -0.25660094 5.21136993 -0.39431504 8 1 C8 2.65 8 4.3 8 6 C3.25 7 3.25 7 1 7 C1 6.34 1 5.68 1 5 C2.65 5 4.3 5 6 5 C6 4.01 6 3.02 6 2 C3.36 2.33 0.72 2.66 -2 3 C-1.34 2.01 -0.68 1.02 0 0 Z " fill="#111318" transform="translate(261,26)"/>
<path d="M0 0 C0.66 0.33 1.32 0.66 2 1 C1.52304688 1.40605469 1.04609375 1.81210937 0.5546875 2.23046875 C-2.15288324 5.31220128 -2.14225137 9.01696172 -2 13 C-0.72746144 16.47096857 -0.72746144 16.47096857 1 19 C-2.875 17.25 -2.875 17.25 -4 15 C-4.54129128 9.98640045 -4.76641668 6.19752606 -2 1.875 C-1.34 1.25625 -0.68 0.6375 0 0 Z " fill="#040607" transform="translate(87,29)"/>
<path d="M0 0 C1.90318884 2.85478326 2.4619099 4.41941308 3.125 7.6875 C3.29257812 8.49574219 3.46015625 9.30398437 3.6328125 10.13671875 C3.75398438 10.75160156 3.87515625 11.36648437 4 12 C2.35 11.67 0.7 11.34 -1 11 C-1 9.68 -1 8.36 -1 7 C-0.34 7 0.32 7 1 7 C0.67 4.69 0.34 2.38 0 0 Z " fill="#5D49C4" transform="translate(407,55)"/>
<path d="M0 0 C1.485 0.99 1.485 0.99 3 2 C3 2.66 3 3.32 3 4 C3.99 3.67 4.98 3.34 6 3 C8.33299825 2.96045766 10.66708189 2.95598268 13 3 C13 3.66 13 4.32 13 5 C11.9275 5.144375 10.855 5.28875 9.75 5.4375 C7.08337051 5.83749442 4.58600271 6.27591924 2 7 C2 6.34 2 5.68 2 5 C1.34 5 0.68 5 0 5 C0 3.35 0 1.7 0 0 Z " fill="#191E24" transform="translate(311,40)"/>
<path d="M0 0 C0.33 0.99 0.66 1.98 1 3 C2.32 2.01 3.64 1.02 5 0 C5.66 0.33 6.32 0.66 7 1 C6.67 1.33 6.34 1.66 6 2 C8.97 2.495 8.97 2.495 12 3 C12 3.33 12 3.66 12 4 C10.906875 4.12375 9.81375 4.2475 8.6875 4.375 C4.92618198 4.75464801 4.92618198 4.75464801 2 7 C2 6.34 2 5.68 2 5 C1.34 5 0.68 5 0 5 C0 3.35 0 1.7 0 0 Z " fill="#2A313C" transform="translate(334,40)"/>
<path d="M0 0 C0.99 0.33 1.98 0.66 3 1 C4.1577506 4.47325181 4.06866652 7.36067448 4 11 C3.34 9.68 2.68 8.36 2 7 C1.34 7 0.68 7 0 7 C0 4.69 0 2.38 0 0 Z " fill="#6C54E0" transform="translate(399,37)"/>
<path d="M0 0 C0.66 0.99 1.32 1.98 2 3 C2.66 3 3.32 3 4 3 C3.34 5.97 2.68 8.94 2 12 C1.67 12 1.34 12 1 12 C0.67 10.35 0.34 8.7 0 7 C-0.66 8.32 -1.32 9.64 -2 11 C-3 9 -3 9 -2.44140625 6.8359375 C-2.15136719 6.02382813 -1.86132812 5.21171875 -1.5625 4.375 C-1.27503906 3.55773438 -0.98757813 2.74046875 -0.69140625 1.8984375 C-0.46324219 1.27195313 -0.23507812 0.64546875 0 0 Z " fill="#5F4AC1" transform="translate(390,35)"/>
<path d="M0 0 C1.9375 0.375 1.9375 0.375 4 1 C5.35550385 3.7110077 5.16917207 5.91339169 5.1875 8.9375 C5.20167969 9.99839844 5.21585937 11.05929688 5.23046875 12.15234375 C5 15 5 15 3 18 C2.34 17.67 1.68 17.34 1 17 C1.66 16.01 2.32 15.02 3 14 C3.63703965 9.58208864 3.4699407 5.95946227 1.5 1.9375 C1.005 1.298125 0.51 0.65875 0 0 Z " fill="#090B0E" transform="translate(289,45)"/>
<path d="M0 0 C0 0.99 0 1.98 0 3 C-0.99 3.495 -0.99 3.495 -2 4 C-2 5.65 -2 7.3 -2 9 C-2.99 8.67 -3.98 8.34 -5 8 C-5.6875 5.6875 -5.6875 5.6875 -6 3 C-4.0819994 0.21889913 -3.45555657 0 0 0 Z " fill="#4D55C8" transform="translate(18,45)"/>
<path d="M0 0 C0.33 0 0.66 0 1 0 C1 2.97 1 5.94 1 9 C0.34 9 -0.32 9 -1 9 C-1.33 7.68 -1.66 6.36 -2 5 C-2.99 5.495 -2.99 5.495 -4 6 C-3.67 4.35 -3.34 2.7 -3 1 C-2.67 1.66 -2.34 2.32 -2 3 C-1.34 3 -0.68 3 0 3 C0 2.01 0 1.02 0 0 Z " fill="#5643B0" transform="translate(387,53)"/>
<path d="M0 0 C0.99 0 1.98 0 3 0 C3 0.66 3 1.32 3 2 C8.28 2 13.56 2 19 2 C19 2.33 19 2.66 19 3 C13.06 3 7.12 3 1 3 C0.67 2.01 0.34 1.02 0 0 Z " fill="#5E53C8" transform="translate(44,47)"/>
<path d="M0 0 C1.65 0 3.3 0 5 0 C5.33 1.65 5.66 3.3 6 5 C4.68 5 3.36 5 2 5 C2 4.34 2 3.68 2 3 C1.34 3 0.68 3 0 3 C0 2.01 0 1.02 0 0 Z " fill="#5D49C0" transform="translate(393,27)"/>
<path d="M0 0 C1.32 0.33 2.64 0.66 4 1 C4.33 2.32 4.66 3.64 5 5 C6.65 5 8.3 5 10 5 C10.33 4.01 10.66 3.02 11 2 C11 3.32 11 4.64 11 6 C7.75 6.375 7.75 6.375 4 6 C1.5625 3 1.5625 3 0 0 Z " fill="#080A0C" transform="translate(101,34)"/>
<path d="M0 0 C0.99 0.33 1.98 0.66 3 1 C2.67 2.98 2.34 4.96 2 7 C0.68 6.67 -0.64 6.34 -2 6 C-1.34 4.02 -0.68 2.04 0 0 Z " fill="#2F337D" transform="translate(16,48)"/>
<path d="M0 0 C0.598125 0.350625 1.19625 0.70125 1.8125 1.0625 C1.8125 1.7225 1.8125 2.3825 1.8125 3.0625 C0.4925 3.3925 -0.8275 3.7225 -2.1875 4.0625 C-3.1775 2.7425 -4.1675 1.4225 -5.1875 0.0625 C-2.1875 -0.9375 -2.1875 -0.9375 0 0 Z " fill="#353F94" transform="translate(23.1875,55.9375)"/>
<path d="M0 0 C0.99 0 1.98 0 3 0 C3.33 2.31 3.66 4.62 4 7 C3.01 7 2.02 7 1 7 C0.67 4.69 0.34 2.38 0 0 Z " fill="#5558E2" transform="translate(18,45)"/>
<path d="M0 0 C0.66 0 1.32 0 2 0 C2 0.66 2 1.32 2 2 C2.99 1.67 3.98 1.34 5 1 C5.33 2.65 5.66 4.3 6 6 C5.67 5.34 5.34 4.68 5 4 C3.35 4 1.7 4 0 4 C0 2.68 0 1.36 0 0 Z " fill="#6E52EF" transform="translate(393,30)"/>
<path d="M0 0 C1.5625 1.25 1.5625 1.25 3 3 C2.6875 5.1875 2.6875 5.1875 2 7 C1.67 6.34 1.34 5.68 1 5 C0.01 5.33 -0.98 5.66 -2 6 C-1.125 1.125 -1.125 1.125 0 0 Z " fill="#2B333E" transform="translate(190,61)"/>
<path d="M0 0 C0.33 0 0.66 0 1 0 C1 1.65 1 3.3 1 5 C0.34 5 -0.32 5 -1 5 C-1 5.99 -1 6.98 -1 8 C-1.66 8 -2.32 8 -3 8 C-1.125 1.125 -1.125 1.125 0 0 Z " fill="#7157F2" transform="translate(385,57)"/>
<path d="M0 0 C1.32 0.33 2.64 0.66 4 1 C3.67 1.99 3.34 2.98 3 4 C0.36 4 -2.28 4 -5 4 C-5 3.67 -5 3.34 -5 3 C-3.35 2.67 -1.7 2.34 0 2 C0 1.34 0 0.68 0 0 Z " fill="#423F92" transform="translate(61,58)"/>
<path d="M0 0 C1.98 0 3.96 0 6 0 C6 0.99 6 1.98 6 3 C4.35 3 2.7 3 1 3 C0.67 2.01 0.34 1.02 0 0 Z " fill="#364051" transform="translate(181,40)"/>
<path d="" fill="#000000" transform="translate(0,0)"/>
<path d="" fill="#000000" transform="translate(0,0)"/>
<path d="" fill="#000000" transform="translate(0,0)"/>
</svg>
