<?xml version="1.0" encoding="UTF-8"?>
<!DOCTYPE svg PUBLIC "-//W3C//DTD SVG 1.1//EN" "http://www.w3.org/Graphics/SVG/1.1/DTD/svg11.dtd">
<svg xmlns="http://www.w3.org/2000/svg" version="1.1" width="448px" height="85px" style="shape-rendering:geometricPrecision; text-rendering:geometricPrecision; image-rendering:optimizeQuality; fill-rule:evenodd; clip-rule:evenodd" xmlns:xlink="http://www.w3.org/1999/xlink">
<g><path style="opacity:1" fill="#211e43" d="M 73.5,23.5 C 72.609,22.8902 71.609,22.5569 70.5,22.5C 70.0472,21.5416 69.3805,20.7083 68.5,20C 53.5037,19.5001 38.5037,19.3334 23.5,19.5C 22.1667,19.5 20.8333,19.5 19.5,19.5C 21.4758,17.9891 23.8091,17.1558 26.5,17C 39.5,16.3333 52.5,16.3333 65.5,17C 69.5662,17.5761 72.2329,19.7427 73.5,23.5 Z"/></g>
<g><path style="opacity:1" fill="#7a66ef" d="M 23.5,19.5 C 38.5037,19.3334 53.5037,19.5001 68.5,20C 69.3805,20.7083 70.0472,21.5416 70.5,22.5C 71.8174,39.4359 71.8174,56.4359 70.5,73.5C 70.1587,56.8127 69.1587,40.4794 67.5,24.5C 58.039,22.7393 48.2057,21.7393 38,21.5C 35.5582,21.4823 33.3915,22.149 31.5,23.5C 30.1667,23.5 28.8333,23.5 27.5,23.5C 25.7078,22.6909 23.7078,22.1909 21.5,22C 22.3805,21.2917 23.0472,20.4584 23.5,19.5 Z"/></g>
<g><path style="opacity:1" fill="#5f56c6" d="M 67.5,24.5 C 57.4238,23.8215 48.0905,23.8215 39.5,24.5C 40.3833,29.1031 40.7166,33.7697 40.5,38.5C 39.8333,38.5 39.1667,38.5 38.5,38.5C 38.5489,35.6257 38.2156,32.7923 37.5,30C 37.3158,28.6244 36.6491,27.7911 35.5,27.5C 34.5,25.8333 33.1667,24.5 31.5,23.5C 33.3915,22.149 35.5582,21.4823 38,21.5C 48.2057,21.7393 58.039,22.7393 67.5,24.5 Z"/></g>
<g><path style="opacity:0.958" fill="#1b1a39" d="M 27.5,23.5 C 28.8333,23.5 30.1667,23.5 31.5,23.5C 33.1667,24.5 34.5,25.8333 35.5,27.5C 35.8033,43.5476 35.4699,59.5476 34.5,75.5C 32.7334,76.2565 30.9001,76.9231 29,77.5C 27.9701,77.1639 27.4701,76.4972 27.5,75.5C 30.9496,76.2436 32.6162,74.9103 32.5,71.5C 32.5,68.1667 32.5,64.8333 32.5,61.5C 32.6602,59.8008 32.4935,58.1341 32,56.5C 30.3005,57.4061 28.4672,57.7394 26.5,57.5C 24.5654,56.19 22.5654,54.8567 20.5,53.5C 22.9659,52.1193 24.9659,52.6193 26.5,55C 30.4648,55.5248 32.1314,53.6914 31.5,49.5C 28.1501,49.665 24.8168,49.4983 21.5,49C 22.056,48.6174 22.3893,48.1174 22.5,47.5C 25.8333,47.5 29.1667,47.5 32.5,47.5C 32.5,45.1667 32.5,42.8333 32.5,40.5C 32.5,37.5 32.5,34.5 32.5,31.5C 33.0727,28.3833 31.906,26.3833 29,25.5C 26.1712,25.8284 23.6712,26.8284 21.5,28.5C 22.2876,25.3791 24.2876,23.7124 27.5,23.5 Z"/></g>
<g><path style="opacity:0.964" fill="#453b83" d="M 70.5,22.5 C 71.609,22.5569 72.609,22.8902 73.5,23.5C 74.8241,40.9312 74.8241,58.2645 73.5,75.5C 71.5204,75.3035 69.5204,75.9701 67.5,77.5C 67.631,76.7611 67.4643,76.0944 67,75.5C 57.5834,76.4851 48.0834,76.8184 38.5,76.5C 38.5,63.8333 38.5,51.1667 38.5,38.5C 39.1667,38.5 39.8333,38.5 40.5,38.5C 41.748,50.4466 41.748,62.4466 40.5,74.5C 48.5069,74.6664 56.5069,74.4997 64.5,74C 65,73.5 65.5,73 66,72.5C 66.8238,56.9256 66.6571,41.4256 65.5,26C 56.7557,25.8046 48.089,25.3046 39.5,24.5C 48.0905,23.8215 57.4238,23.8215 67.5,24.5C 69.1587,40.4794 70.1587,56.8127 70.5,73.5C 71.8174,56.4359 71.8174,39.4359 70.5,22.5 Z"/></g>
<g><path style="opacity:1" fill="#221b41" d="M 415.5,25.5 C 422.167,25.5 428.833,25.5 435.5,25.5C 435.5,27.8333 435.5,30.1667 435.5,32.5C 433.167,32.5 430.833,32.5 428.5,32.5C 428.5,42.1667 428.5,51.8333 428.5,61.5C 430.833,61.5 433.167,61.5 435.5,61.5C 435.5,63.5 435.5,65.5 435.5,67.5C 428.833,67.5 422.167,67.5 415.5,67.5C 415.5,65.5 415.5,63.5 415.5,61.5C 417.5,61.5 419.5,61.5 421.5,61.5C 421.5,51.8333 421.5,42.1667 421.5,32.5C 419.5,32.5 417.5,32.5 415.5,32.5C 415.5,30.1667 415.5,27.8333 415.5,25.5 Z"/></g>
<g><path style="opacity:1" fill="#605cda" d="M 35.5,27.5 C 36.6491,27.7911 37.3158,28.6244 37.5,30C 38.2156,32.7923 38.5489,35.6257 38.5,38.5C 38.5,51.1667 38.5,63.8333 38.5,76.5C 48.0834,76.8184 57.5834,76.4851 67,75.5C 67.4643,76.0944 67.631,76.7611 67.5,77.5C 66.8333,77.5 66.1667,77.5 65.5,77.5C 56.2149,77.1983 47.2149,78.1983 38.5,80.5C 36.7085,80.366 35.0418,80.6993 33.5,81.5C 26.9514,81.0929 26.9514,80.0929 33.5,78.5C 34.1272,77.5832 34.4606,76.5832 34.5,75.5C 35.4699,59.5476 35.8033,43.5476 35.5,27.5 Z"/></g>
<g><path style="opacity:0.949" fill="#3a3c87" d="M 19.5,19.5 C 20.8333,19.5 22.1667,19.5 23.5,19.5C 23.0472,20.4584 22.3805,21.2917 21.5,22C 23.7078,22.1909 25.7078,22.6909 27.5,23.5C 24.2876,23.7124 22.2876,25.3791 21.5,28.5C 17.2776,33.7428 12.9443,39.0761 8.5,44.5C 8.62358,45.1067 8.95691,45.44 9.5,45.5C 9.5,46.5 9.5,47.5 9.5,48.5C 8.83333,51.1667 8.16667,53.8333 7.5,56.5C 7.80924,51.7325 7.30924,47.0658 6,42.5C 3.79122,45.789 2.95788,49.4557 3.5,53.5C 3.16667,53.5 2.83333,53.5 2.5,53.5C 0.953886,45.7323 2.45389,38.399 7,31.5C 11.7428,27.9205 15.9094,23.9205 19.5,19.5 Z"/></g>
<g><path style="opacity:1" fill="#605edc" d="M 17.5,22.5 C 21.8138,22.7721 22.3138,24.1055 19,26.5C 19.4372,30.4425 17.7705,32.7758 14,33.5C 13.6905,32.2341 13.1905,31.0674 12.5,30C 15.7892,28.5897 17.4559,26.0897 17.5,22.5 Z"/></g>
<g><path style="opacity:0.9" fill="#fefffe" d="M 261.5,28.5 C 264.833,28.5 268.167,28.5 271.5,28.5C 271.5,30.1667 271.5,31.8333 271.5,33.5C 268.813,33.3359 266.146,33.5026 263.5,34C 261.771,35.7889 261.104,37.9556 261.5,40.5C 264.167,40.5 266.833,40.5 269.5,40.5C 269.5,42.1667 269.5,43.8333 269.5,45.5C 266.833,45.5 264.167,45.5 261.5,45.5C 261.5,54.1667 261.5,62.8333 261.5,71.5C 259.5,71.5 257.5,71.5 255.5,71.5C 255.5,62.8333 255.5,54.1667 255.5,45.5C 253.833,45.5 252.167,45.5 250.5,45.5C 250.5,43.8333 250.5,42.1667 250.5,40.5C 252.167,40.5 253.833,40.5 255.5,40.5C 254.686,34.8697 256.686,30.8697 261.5,28.5 Z"/></g>
<g><path style="opacity:1" fill="#6c52e3" d="M 427.5,62.5 C 427.179,64.0481 426.179,64.7148 424.5,64.5C 424.667,53.495 424.5,42.495 424,31.5C 423.722,32.4158 423.222,33.0825 422.5,33.5C 421.411,31.8829 419.744,31.0496 417.5,31C 416.663,29.9887 416.33,28.8221 416.5,27.5C 422.5,27.5 428.5,27.5 434.5,27.5C 434.5,28.5 434.5,29.5 434.5,30.5C 432.167,30.5 429.833,30.5 427.5,30.5C 427.5,41.1667 427.5,51.8333 427.5,62.5 Z"/></g>
<g><path style="opacity:0.898" fill="#fdfdfe" d="M 110.5,36.5 C 110.5,36.8333 110.5,37.1667 110.5,37.5C 108.784,37.3713 107.117,37.038 105.5,36.5C 104.359,35.661 103.026,34.9943 101.5,34.5C 100.893,34.6236 100.56,34.9569 100.5,35.5C 97.0306,34.8361 93.8639,35.8361 91,38.5C 89.9639,41.6799 90.7972,44.1799 93.5,46C 99.8759,46.8789 105.709,49.0456 111,52.5C 115.768,61.8706 113.268,68.3706 103.5,72C 96.7235,72.7992 90.0568,72.2992 83.5,70.5C 83.5,68.8333 83.5,67.1667 83.5,65.5C 84.8333,64.1667 86.1667,64.1667 87.5,65.5C 92.0714,66.9775 96.7381,67.4775 101.5,67C 104.534,65.8088 106.201,63.6421 106.5,60.5C 106.727,58.0672 105.727,56.4006 103.5,55.5C 98.5192,54.0669 93.5192,52.5669 88.5,51C 86.9586,49.6288 85.6253,48.1288 84.5,46.5C 84.5,42.8333 84.5,39.1667 84.5,35.5C 85.1667,35.5 85.5,35.1667 85.5,34.5C 92.8341,29.1279 100.834,28.1279 109.5,31.5C 110.452,33.0453 110.785,34.712 110.5,36.5 Z"/></g>
<g><path style="opacity:1" fill="#313170" d="M 32.5,31.5 C 32.5,34.5 32.5,37.5 32.5,40.5C 29.9561,42.0186 27.2895,43.352 24.5,44.5C 23.6236,44.6309 22.9569,44.2975 22.5,43.5C 23.4803,42.0186 24.647,40.6853 26,39.5C 26.7203,37.8876 26.5536,36.3876 25.5,35C 27.9659,34.0703 27.7993,33.237 25,32.5C 24.228,32.6448 23.5613,32.9781 23,33.5C 22.5361,38.4518 20.0361,41.7852 15.5,43.5C 15.1667,43.5 14.8333,43.5 14.5,43.5C 16.1271,41.3702 17.9604,39.3702 20,37.5C 21.5836,30.0304 25.7503,28.0304 32.5,31.5 Z"/></g>
<g><path style="opacity:0.801" fill="#1e1b3d" d="M 45.5,31.5 C 51.1764,31.3339 56.8431,31.5006 62.5,32C 64.3959,33.8083 64.8959,35.975 64,38.5C 56.9756,40.8007 49.8089,41.134 42.5,39.5C 42.5,37.1667 42.5,34.8333 42.5,32.5C 43.791,32.7373 44.791,32.404 45.5,31.5 Z"/></g>
<g><path style="opacity:0.872" fill="#fefffe" d="M 232.5,31.5 C 234.5,31.5 236.5,31.5 238.5,31.5C 238.5,34.5 238.5,37.5 238.5,40.5C 242.167,40.5 245.833,40.5 249.5,40.5C 249.5,42.1667 249.5,43.8333 249.5,45.5C 245.833,45.5 242.167,45.5 238.5,45.5C 238.334,51.8421 238.5,58.1754 239,64.5C 239.5,65 240,65.5 240.5,66C 243.482,66.498 246.482,66.6646 249.5,66.5C 249.5,68.1667 249.5,69.8333 249.5,71.5C 245.486,71.6655 241.486,71.4988 237.5,71C 236.069,70.5348 234.903,69.7014 234,68.5C 232.604,60.9196 232.104,53.253 232.5,45.5C 228.154,45.3343 223.821,45.501 219.5,46C 217.683,47.7998 216.516,49.9664 216,52.5C 215.5,58.8246 215.334,65.1579 215.5,71.5C 213.5,71.5 211.5,71.5 209.5,71.5C 209.5,61.1667 209.5,50.8333 209.5,40.5C 211.5,40.5 213.5,40.5 215.5,40.5C 215.351,41.552 215.517,42.552 216,43.5C 217.319,41.5125 219.152,40.3459 221.5,40C 225.188,39.5499 228.854,39.7166 232.5,40.5C 232.5,37.5 232.5,34.5 232.5,31.5 Z"/></g>
<g><path style="opacity:1" fill="#5d49c7" d="M 427.5,62.5 C 429.833,62.5 432.167,62.5 434.5,62.5C 434.5,63.8333 434.5,65.1667 434.5,66.5C 428.5,66.5 422.5,66.5 416.5,66.5C 416.5,65.1667 416.5,63.8333 416.5,62.5C 418.833,62.5 421.167,62.5 423.5,62.5C 423.211,52.8314 422.878,43.1648 422.5,33.5C 423.222,33.0825 423.722,32.4158 424,31.5C 424.5,42.495 424.667,53.495 424.5,64.5C 426.179,64.7148 427.179,64.0481 427.5,62.5 Z"/></g>
<g><path style="opacity:1" fill="#131518" d="M 85.5,34.5 C 84.8333,34.5 84.5,34.8333 84.5,35.5C 84.5,39.1667 84.5,42.8333 84.5,46.5C 82.1058,44.6682 81.1058,42.1682 81.5,39C 81.177,34.4318 82.8437,30.9318 86.5,28.5C 87.3081,28.8076 87.9747,29.3076 88.5,30C 86.6243,30.9184 85.6243,32.4184 85.5,34.5 Z"/></g>
<g><path style="opacity:1" fill="#7060e4" d="M 43.5,34.5 C 49.8333,34.5 56.1667,34.5 62.5,34.5C 62.5,35.5 62.5,36.5 62.5,37.5C 56.1667,37.5 49.8333,37.5 43.5,37.5C 43.5,36.5 43.5,35.5 43.5,34.5 Z"/></g>
<g><path style="opacity:0.02" fill="#00002b" d="M 135.5,36.5 C 136.833,37.1667 136.833,37.1667 135.5,36.5 Z"/></g>
<g><path style="opacity:1" fill="#121417" d="M 105.5,36.5 C 105.791,37.6491 106.624,38.3158 108,38.5C 109.07,38.472 109.903,38.1386 110.5,37.5C 110.5,37.1667 110.5,36.8333 110.5,36.5C 111.434,37.5676 111.768,38.901 111.5,40.5C 106.475,41.611 102.808,39.9443 100.5,35.5C 100.56,34.9569 100.893,34.6236 101.5,34.5C 103.026,34.9943 104.359,35.661 105.5,36.5 Z M 105.5,36.5 C 107.117,37.038 108.784,37.3713 110.5,37.5C 109.903,38.1386 109.07,38.472 108,38.5C 106.624,38.3158 105.791,37.6491 105.5,36.5 Z"/></g>
<g><path style="opacity:0.899" fill="#fbfbfb" d="M 128.5,41.5 C 130.179,41.1077 131.846,40.6077 133.5,40C 132.5,39.6667 131.5,39.3333 130.5,39C 133.347,38.0561 135.847,38.5561 138,40.5C 141.227,40.323 143.56,41.9896 145,45.5C 150,39.7888 155.833,38.6221 162.5,42C 164.604,44.0424 165.771,46.5424 166,49.5C 166.5,56.8258 166.666,64.1591 166.5,71.5C 164.5,71.5 162.5,71.5 160.5,71.5C 160.666,64.4921 160.5,57.4921 160,50.5C 158.551,45.782 155.385,44.282 150.5,46C 148.951,47.214 147.785,48.714 147,50.5C 146.5,57.4921 146.334,64.4921 146.5,71.5C 144.5,71.5 142.5,71.5 140.5,71.5C 140.666,64.1591 140.5,56.8258 140,49.5C 137.839,45.8759 134.672,44.7093 130.5,46C 128.959,47.5793 127.792,49.4127 127,51.5C 126.5,58.1583 126.334,64.825 126.5,71.5C 124.5,71.5 122.5,71.5 120.5,71.5C 120.5,61.1667 120.5,50.8333 120.5,40.5C 123.74,38.8664 125.906,39.8664 127,43.5C 127.717,42.9558 128.217,42.2891 128.5,41.5 Z"/></g>
<g><path style="opacity:1" fill="#1f252d" d="M 128.5,39.5 C 129.833,40.1667 129.833,40.1667 128.5,39.5 Z"/></g>
<g><path style="opacity:0.859" fill="#fefffe" d="M 183.5,39.5 C 191.843,38.4118 197.343,41.7451 200,49.5C 200.5,56.8258 200.666,64.1591 200.5,71.5C 198.5,71.5 196.5,71.5 194.5,71.5C 194.649,70.448 194.483,69.448 194,68.5C 189.909,72.3049 185.076,73.4716 179.5,72C 174.365,68.9446 172.532,64.4446 174,58.5C 174.785,56.714 175.951,55.214 177.5,54C 182.992,52.149 188.658,51.149 194.5,51C 194.042,48.6023 192.708,46.9356 190.5,46C 185.64,45.0321 180.974,45.5321 176.5,47.5C 175.534,45.604 175.201,43.604 175.5,41.5C 178.373,41.1977 181.039,40.531 183.5,39.5 Z M 183.5,56.5 C 187.167,56.5 190.833,56.5 194.5,56.5C 194.302,64.5392 190.302,68.0392 182.5,67C 178.514,63.1046 178.847,59.6046 183.5,56.5 Z"/></g>
<g><path style="opacity:0.88" fill="#fefefe" d="M 284.5,39.5 C 297.588,40.2853 303.088,47.2853 301,60.5C 296.818,72.3336 288.985,75.5003 277.5,70C 272.767,63.9996 271.267,57.1662 273,49.5C 275.21,44.1124 279.043,40.779 284.5,39.5 Z M 288.5,45.5 C 291.699,50.6925 292.199,56.0259 290,61.5C 291.147,62.4581 292.147,62.1247 293,60.5C 293.498,57.1832 293.665,53.8499 293.5,50.5C 295.083,55.5839 294.583,60.5839 292,65.5C 285.589,69.2637 281.256,67.597 279,60.5C 277.642,55.0066 278.809,50.1733 282.5,46C 284.473,45.5045 286.473,45.3379 288.5,45.5 Z"/></g>
<g><path style="opacity:0.884" fill="#fefffe" d="M 320.5,39.5 C 322.833,39.5 325.167,39.5 327.5,39.5C 327.5,41.5 327.5,43.5 327.5,45.5C 320.776,43.6599 316.609,45.9932 315,52.5C 314.5,58.8246 314.334,65.1579 314.5,71.5C 312.5,71.5 310.5,71.5 308.5,71.5C 308.5,61.1667 308.5,50.8333 308.5,40.5C 310.5,40.5 312.5,40.5 314.5,40.5C 314.351,41.552 314.517,42.552 315,43.5C 316.5,41.5313 318.333,40.198 320.5,39.5 Z"/></g>
<g><path style="opacity:0.906" fill="#fdfdfd" d="M 359.5,41.5 C 361.403,41.2041 363.07,40.5375 364.5,39.5C 369.165,39.5792 372.665,41.5792 375,45.5C 376.376,54.0979 376.876,62.7646 376.5,71.5C 374.5,71.5 372.5,71.5 370.5,71.5C 370.5,70.1667 370.5,68.8333 370.5,67.5C 370.666,61.4908 370.499,55.4908 370,49.5C 369.764,47.8807 368.931,46.8807 367.5,46.5C 362.788,44.3553 359.288,45.6887 357,50.5C 356.5,57.4921 356.334,64.4921 356.5,71.5C 354.5,71.5 352.5,71.5 350.5,71.5C 350.666,64.1591 350.5,56.8258 350,49.5C 347.947,45.7084 344.781,44.5418 340.5,46C 339.213,47.4095 338.046,48.9095 337,50.5C 336.5,57.4921 336.334,64.4921 336.5,71.5C 334.5,71.5 332.5,71.5 330.5,71.5C 330.5,60.8333 330.5,50.1667 330.5,39.5C 332.5,39.8333 334.5,40.1667 336.5,40.5C 336.351,41.552 336.517,42.552 337,43.5C 343.749,37.8581 349.749,38.5248 355,45.5C 356.371,43.9586 357.871,42.6253 359.5,41.5 Z"/></g>
<g><path style="opacity:0.431" fill="#3c4555" d="M 364.5,39.5 C 363.07,40.5375 361.403,41.2041 359.5,41.5C 360.552,39.744 362.219,39.0773 364.5,39.5 Z"/></g>
<g><path style="opacity:0.016" fill="#161b21" d="M 128.5,40.5 C 128.5,40.8333 128.5,41.1667 128.5,41.5C 127.83,41.0187 127.83,40.6853 128.5,40.5 Z"/></g>
<g><path style="opacity:1" fill="#5a61e2" d="M 7.5,56.5 C 5.56954,56.2294 4.23621,55.2294 3.5,53.5C 2.95788,49.4557 3.79122,45.789 6,42.5C 7.30924,47.0658 7.80924,51.7325 7.5,56.5 Z"/></g>
<g><path style="opacity:0.962" fill="#443d89" d="M 44.5,43.5 C 51.1908,43.4542 57.8574,43.7875 64.5,44.5C 64.5,46.5 64.5,48.5 64.5,50.5C 57.1667,50.5 49.8333,50.5 42.5,50.5C 42.1849,47.7892 42.8516,45.4559 44.5,43.5 Z"/></g>
<g><path style="opacity:1" fill="#4148ab" d="M 14.5,43.5 C 14.8333,43.5 15.1667,43.5 15.5,43.5C 17.2976,46.8309 17.9643,50.4975 17.5,54.5C 16.209,54.2627 15.209,54.596 14.5,55.5C 11.3683,52.0115 11.035,48.3448 13.5,44.5C 13.5,43.8333 13.8333,43.5 14.5,43.5 Z"/></g>
<g><path style="opacity:0.997" fill="#0c0c19" d="M 13.5,44.5 C 11.035,48.3448 11.3683,52.0115 14.5,55.5C 14.5,57.1667 14.5,58.8333 14.5,60.5C 10.5319,57.6284 8.86526,53.6284 9.5,48.5C 9.5,47.5 9.5,46.5 9.5,45.5C 10.7079,44.7659 12.0413,44.4326 13.5,44.5 Z"/></g>
<g><path style="opacity:1" fill="#5d52c7" d="M 43.5,47.5 C 43.7352,46.9033 44.2352,46.5699 45,46.5C 50.6598,48.1876 56.4931,49.0209 62.5,49C 55.8859,50.0567 49.5526,49.5567 43.5,47.5 Z"/></g>
<g><path style="opacity:0.97" fill="#0f1114" d="M 288.5,45.5 C 291.833,45.5 293.5,47.1667 293.5,50.5C 293.665,53.8499 293.498,57.1832 293,60.5C 292.147,62.1247 291.147,62.4581 290,61.5C 292.199,56.0259 291.699,50.6925 288.5,45.5 Z"/></g>
<g><path style="opacity:0.621" fill="#374050" d="M 367.5,46.5 C 368.931,46.8807 369.764,47.8807 370,49.5C 370.499,55.4908 370.666,61.4908 370.5,67.5C 368.796,60.8301 367.796,53.8301 367.5,46.5 Z"/></g>
<g><path style="opacity:1" fill="#4d52c9" d="M 24.5,44.5 C 23.8333,45.5 23.1667,46.5 22.5,47.5C 22.3893,48.1174 22.056,48.6174 21.5,49C 24.8168,49.4983 28.1501,49.665 31.5,49.5C 32.1314,53.6914 30.4648,55.5248 26.5,55C 24.9659,52.6193 22.9659,52.1193 20.5,53.5C 22.5654,54.8567 24.5654,56.19 26.5,57.5C 26.8333,58.1667 27.1667,58.8333 27.5,59.5C 25.2651,60.2481 25.5984,61.0814 28.5,62C 26.9505,64.0723 25.6171,66.239 24.5,68.5C 23.2779,63.3889 20.9446,58.7223 17.5,54.5C 17.9643,50.4975 17.2976,46.8309 15.5,43.5C 20.0361,41.7852 22.5361,38.4518 23,33.5C 23.5613,32.9781 24.228,32.6448 25,32.5C 27.7993,33.237 27.9659,34.0703 25.5,35C 26.5536,36.3876 26.7203,37.8876 26,39.5C 24.647,40.6853 23.4803,42.0186 22.5,43.5C 22.9569,44.2975 23.6236,44.6309 24.5,44.5 Z"/></g>
<g><path style="opacity:0.946" fill="#292154" d="M 387.5,60.5 C 387.337,58.1432 387.503,55.8098 388,53.5C 391.136,47.4525 392.969,41.2858 393.5,35C 394.784,34.3162 395.951,34.4829 397,35.5C 398.803,41.1159 400.303,46.7826 401.5,52.5C 398.603,52.1253 395.937,52.6253 393.5,54C 396.817,54.4983 400.15,54.665 403.5,54.5C 403.545,58.3465 404.378,62.0131 406,65.5C 407.356,66.3802 408.856,66.7135 410.5,66.5C 407.051,53.3174 402.884,40.3174 398,27.5C 396,26.1667 394,26.1667 392,27.5C 387.518,40.4443 383.351,53.4443 379.5,66.5C 381.199,66.6602 382.866,66.4935 384.5,66C 384.915,63.9737 385.915,62.4737 387.5,61.5C 386.85,63.4352 386.517,65.4352 386.5,67.5C 383.5,67.5 380.5,67.5 377.5,67.5C 381.031,53.2417 385.364,39.2417 390.5,25.5C 393.5,25.5 396.5,25.5 399.5,25.5C 403.359,37.9096 407.526,50.2429 412,62.5C 412.494,64.1341 412.66,65.8008 412.5,67.5C 409.753,67.8134 407.086,67.48 404.5,66.5C 403.199,63.5729 402.199,60.5729 401.5,57.5C 397.167,57.5 392.833,57.5 388.5,57.5C 388.737,58.791 388.404,59.791 387.5,60.5 Z M 394.5,38.5 C 395.117,38.6107 395.617,38.944 396,39.5C 397.15,43.1117 397.983,46.7783 398.5,50.5C 396.167,50.5 393.833,50.5 391.5,50.5C 392.5,46.5 393.5,42.5 394.5,38.5 Z"/></g>
<g><path style="opacity:1" fill="#614bcd" d="M 387.5,60.5 C 387.5,60.8333 387.5,61.1667 387.5,61.5C 385.915,62.4737 384.915,63.9737 384.5,66C 382.866,66.4935 381.199,66.6602 379.5,66.5C 383.351,53.4443 387.518,40.4443 392,27.5C 394,26.1667 396,26.1667 398,27.5C 402.884,40.3174 407.051,53.3174 410.5,66.5C 408.856,66.7135 407.356,66.3802 406,65.5C 404.378,62.0131 403.545,58.3465 403.5,54.5C 400.15,54.665 396.817,54.4983 393.5,54C 395.937,52.6253 398.603,52.1253 401.5,52.5C 400.303,46.7826 398.803,41.1159 397,35.5C 395.951,34.4829 394.784,34.3162 393.5,35C 392.969,41.2858 391.136,47.4525 388,53.5C 387.503,55.8098 387.337,58.1432 387.5,60.5 Z M 394.5,38.5 C 393.5,42.5 392.5,46.5 391.5,50.5C 393.833,50.5 396.167,50.5 398.5,50.5C 397.983,46.7783 397.15,43.1117 396,39.5C 395.617,38.944 395.117,38.6107 394.5,38.5 Z"/></g>
<g><path style="opacity:1" fill="#141519" d="M 87.5,65.5 C 86.1667,64.1667 84.8333,64.1667 83.5,65.5C 81.4232,62.1989 80.4232,58.5322 80.5,54.5C 83.1873,54.3359 85.854,54.5026 88.5,55C 87.8921,55.8699 87.0588,56.3699 86,56.5C 84.8382,55.8132 83.6716,55.6466 82.5,56C 84.3196,59.1414 85.9862,62.3081 87.5,65.5 Z"/></g>
<g><path style="opacity:0.859" fill="#3a3887" d="M 46.5,54.5 C 52.3343,54.0499 58.001,54.7166 63.5,56.5C 65.0066,58.9686 64.6732,61.1353 62.5,63C 56.5,63.6667 50.5,63.6667 44.5,63C 42.709,60.8938 42.0423,58.3938 42.5,55.5C 44.099,55.7678 45.4324,55.4345 46.5,54.5 Z"/></g>
<g><path style="opacity:1" fill="#15181e" d="M 103.5,55.5 C 105.727,56.4006 106.727,58.0672 106.5,60.5C 105.211,62.248 103.711,62.5814 102,61.5C 102.595,59.6498 103.095,57.6498 103.5,55.5 Z"/></g>
<g><path style="opacity:0.931" fill="#2a2e6a" d="M 9.5,48.5 C 8.86526,53.6284 10.5319,57.6284 14.5,60.5C 15.4959,60.4142 16.3292,60.7476 17,61.5C 17.3333,63.8333 17.6667,66.1667 18,68.5C 18.7589,70.0629 19.9256,71.0629 21.5,71.5C 22.1667,72.8333 22.8333,72.8333 23.5,71.5C 24.1667,71.5 24.5,71.8333 24.5,72.5C 24.5,72.8333 24.5,73.1667 24.5,73.5C 17.7519,73.0506 15.0853,69.3839 16.5,62.5C 15.1667,62.5 13.8333,62.5 12.5,62.5C 11.2172,70.2932 14.2172,75.2932 21.5,77.5C 22.925,78.922 23.925,80.5887 24.5,82.5C 19.7379,81.2487 15.9046,78.5821 13,74.5C 9.97959,67.1258 6.47959,60.1258 2.5,53.5C 2.83333,53.5 3.16667,53.5 3.5,53.5C 4.23621,55.2294 5.56954,56.2294 7.5,56.5C 8.16667,53.8333 8.83333,51.1667 9.5,48.5 Z"/></g>
<g><path style="opacity:0.004" fill="#112233" d="M 167.5,58.5 C 168.833,59.1667 168.833,59.1667 167.5,58.5 Z"/></g>
<g><path style="opacity:0.431" fill="#1f232d" d="M 137.5,52.5 C 138.647,56.6463 138.814,60.9796 138,65.5C 137.501,61.1794 137.334,56.8461 137.5,52.5 Z"/></g>
<g><path style="opacity:1" fill="#373d91" d="M 27.5,59.5 C 29.2838,59.8925 30.9505,60.5592 32.5,61.5C 32.5,64.8333 32.5,68.1667 32.5,71.5C 31.609,72.1098 30.609,72.4431 29.5,72.5C 29.9528,71.5416 30.6195,70.7083 31.5,70C 28.9644,69.8138 26.631,69.3138 24.5,68.5C 25.6171,66.239 26.9505,64.0723 28.5,62C 25.5984,61.0814 25.2651,60.2481 27.5,59.5 Z"/></g>
<g><path style="opacity:1" fill="#545edf" d="M 24.5,73.5 C 24.2014,75.4553 23.2014,76.7886 21.5,77.5C 14.2172,75.2932 11.2172,70.2932 12.5,62.5C 13.8333,62.5 15.1667,62.5 16.5,62.5C 15.0853,69.3839 17.7519,73.0506 24.5,73.5 Z"/></g>
<g><path style="opacity:1" fill="#151731" d="M 14.5,55.5 C 15.209,54.596 16.209,54.2627 17.5,54.5C 20.9446,58.7223 23.2779,63.3889 24.5,68.5C 26.631,69.3138 28.9644,69.8138 31.5,70C 30.6195,70.7083 29.9528,71.5416 29.5,72.5C 27.8333,72.5 26.1667,72.5 24.5,72.5C 24.5,71.8333 24.1667,71.5 23.5,71.5C 22.8333,71.5 22.1667,71.5 21.5,71.5C 20.6091,68.2219 19.7758,64.8886 19,61.5C 17.5092,59.3365 16.0092,57.3365 14.5,55.5 Z"/></g>
<g><path style="opacity:0.985" fill="#3d4296" d="M 24.5,73.5 C 25.5,74.1667 26.5,74.8333 27.5,75.5C 27.4701,76.4972 27.9701,77.1639 29,77.5C 30.9001,76.9231 32.7334,76.2565 34.5,75.5C 34.4606,76.5832 34.1272,77.5832 33.5,78.5C 26.9514,80.0929 26.9514,81.0929 33.5,81.5C 32.5525,82.9779 31.2191,83.9779 29.5,84.5C 28.5,84.5 27.5,84.5 26.5,84.5C 26.1667,83.5 25.5,82.8333 24.5,82.5C 23.925,80.5887 22.925,78.922 21.5,77.5C 23.2014,76.7886 24.2014,75.4553 24.5,73.5 Z"/></g>
<g><path style="opacity:1" fill="#22224e" d="M 73.5,75.5 C 72.7328,78.7347 70.7328,80.9013 67.5,82C 60.7146,82.9989 54.0479,83.8322 47.5,84.5C 41.5,84.5 35.5,84.5 29.5,84.5C 31.2191,83.9779 32.5525,82.9779 33.5,81.5C 35.0418,80.6993 36.7085,80.366 38.5,80.5C 45.5079,80.6663 52.5079,80.4996 59.5,80C 61.7226,79.4338 63.7226,78.6005 65.5,77.5C 66.1667,77.5 66.8333,77.5 67.5,77.5C 69.5204,75.9701 71.5204,75.3035 73.5,75.5 Z"/></g>
<g><path style="opacity:1" fill="#463e8c" d="M 65.5,77.5 C 63.7226,78.6005 61.7226,79.4338 59.5,80C 52.5079,80.4996 45.5079,80.6663 38.5,80.5C 47.2149,78.1983 56.2149,77.1983 65.5,77.5 Z"/></g>
</svg>
